<?xml version="1.0" encoding="UTF-8" standalone="no"?>
<!-- Created with Inkscape (http://www.inkscape.org/) -->

<svg
   xmlns:dc="http://purl.org/dc/elements/1.1/"
   xmlns:cc="http://creativecommons.org/ns#"
   xmlns:rdf="http://www.w3.org/1999/02/22-rdf-syntax-ns#"
   xmlns:svg="http://www.w3.org/2000/svg"
   xmlns="http://www.w3.org/2000/svg"
   xmlns:sodipodi="http://sodipodi.sourceforge.net/DTD/sodipodi-0.dtd"
   xmlns:inkscape="http://www.inkscape.org/namespaces/inkscape"
   id="svg3336"
   version="1.1"
   inkscape:version="0.91 r13725"
   width="1200"
   height="770"
   viewBox="0 0 1200 770"
   sodipodi:docname="KwizicOwl2.svg">
  <metadata
     id="metadata3342">
    <rdf:RDF>
      <cc:Work
         rdf:about="">
        <dc:format>image/svg+xml</dc:format>
        <dc:type
           rdf:resource="http://purl.org/dc/dcmitype/StillImage" />
        <dc:title></dc:title>
      </cc:Work>
    </rdf:RDF>
  </metadata>
  <defs
     id="defs3340" />
  <sodipodi:namedview
     pagecolor="#ffffff"
     bordercolor="#666666"
     borderopacity="1"
     objecttolerance="10"
     gridtolerance="10"
     guidetolerance="10"
     inkscape:pageopacity="0"
     inkscape:pageshadow="2"
     inkscape:window-width="1366"
     inkscape:window-height="706"
     id="namedview3338"
     showgrid="false"
     inkscape:zoom="0.49497475"
     inkscape:cx="560.20351"
     inkscape:cy="460.62153"
     inkscape:window-x="-8"
     inkscape:window-y="-8"
     inkscape:window-maximized="1"
     inkscape:current-layer="svg3336" />
  <path
     style="fill:#000000"
     d="m 523.99001,704.0625 c -14.15872,-21.93117 7.90192,-58.68238 -32.51316,-56.32786 -15.56091,-0.78772 -48.9455,0.77332 -36.80552,24.85945 11.64339,32.13494 -24.27521,30.73459 -38.88984,28.95137 -12.43244,3.815 -30.12987,6.89245 -39.3774,-5.32169 -27.79417,27.42429 -48.5638,-18.31425 -38.1823,-44.97352 -12.27965,-25.11844 -40.16103,-49.65431 -49.87619,-80.55982 -27.50028,-52.50159 -9.62511,-113.1204 3.28402,-167.0738 26.06496,-39.88151 -39.82129,-6.08866 -60.35296,-22.22295 -27.42841,-10.12806 -61.73052,-26.37578 -67.81388,-57.93183 -6.03339,-15.73131 -7.01374,-38.26164 14.41176,-38.44167 39.21122,7.00386 81.10393,18.11839 119.89552,1.62847 13.0049,-6.81245 50.94398,1.74136 29.39611,-18.87664 -19.48677,-29.46323 -27.09591,-65.73873 -30.17439,-100.4539 -1.66653,-32.28116 3.22315,-64.89852 20.51455,-92.740683 25.03803,-51.55535 78.06378,-86.959199 133.10588,-98.955277 54.49692,-4.511186 109.8599,-4.58533 164.17435,2.062391 49.49095,10.673112 88.89178,48.716793 116.5443,89.279974 22.19732,44.503495 36.33906,94.347295 35.867,144.233445 -6.77978,42.55519 -38.9414,75.20283 -71.96397,99.94285 -40.08014,14.99005 23.22981,38.03138 31.53009,59.65755 20.20521,26.05122 48.70154,48.57922 51.0009,83.95548 2.63375,17.8627 9.35988,38.77813 2.69115,55.87247 -10.33606,19.78899 -37.75693,52.81205 -56.11843,22.49894 4.18657,45.62805 -16.79861,91.30161 -46.76208,124.85665 -16.72205,7.24191 -57.99666,-6.80639 -42.30272,27.23944 0.5266,37.06095 -37.49825,13.19748 -57.39877,23.47554 -11.41434,6.7194 -19.36143,-13.10796 -26.51175,-4.09487 -5.54823,4.41344 -23.77838,8.45615 -27.37227,-0.53951 z m 20.4378,0.33136 c 13.32567,-20.1062 38.50615,16.77777 54.22052,-6.36955 45.32961,30.06502 40.32809,-58.29426 -0.43221,-40.7571 -12.10439,13.45612 -26.79722,4.6453 -40.08862,-0.43759 -15.38218,-6.86212 -42.82954,-1.66204 -37.17542,20.71999 0.21622,12.57957 5.58785,35.39419 23.47573,26.84425 z m -180,-5 c 13.32566,-20.10619 38.50615,16.77777 54.22052,-6.36955 30.20819,28.20458 45.26055,-32.41423 22.63762,-36.97377 -31.18787,-10.69729 -67.36566,4.49565 -96.63607,-11.10149 -5.92701,15.8563 -9.28541,63.18218 19.77793,54.44481 z m 229.50325,-43.56101 c 22.11577,-28.29013 48.6357,-54.53382 58.21727,-90.39864 17.24861,-43.52033 30.79618,-90.28409 21.94762,-137.42865 -6.26358,-27.83433 -7.03344,-57.47882 -13.37323,-84.85722 -14.69508,-29.39888 -48.94828,-26.59238 -76.83987,-31.31395 -31.75038,-7.4325 -64.77584,-18.00545 -96.37465,-4.86493 -30.29365,5.64544 -60.25613,-6.59019 -89.29789,-7.99591 -22.61838,9.699 -21.10867,45.84821 -37.43811,64.23298 -10.95956,32.21866 -32.4686,62.07555 -26.28916,97.8208 0.76881,34.93809 14.41385,68.183 20.11427,102.54837 9.18309,29.40194 20.43384,59.39738 39.51521,83.89903 27.27921,-0.0485 53.41905,8.68675 79.41529,-3.07589 23.33688,-6.60697 44.64557,13.5314 68.31775,6.44309 15.37428,-5.21408 28.74627,11.0787 43.08696,8.68816 3.01749,-1.18804 6.05238,-2.33318 8.99854,-3.69724 z m 87.37641,-7.13435 c 4.44985,-5.36111 8.92383,-13.83856 15.53977,-20.79309 14.39686,-32.83271 33.60648,-74.00997 19.47031,-112.05385 -9.94017,-48.52375 -20.49373,-98.40391 -46.23891,-141.27146 7.8702,51.66323 19.32866,106.74243 -1.93572,157.00473 -10.33375,23.37364 -16.65673,56.5589 -30.786,74.28918 -2.99199,8.49539 -6.69495,10.46584 -11.66853,17.06728 1.31864,-3.67051 -16.1338,20.59449 -8.28111,8.97699 -17.13769,15.38143 -15.31136,18.4778 12.73031,24.95893 12.22434,6.70155 48.70222,-2.05238 51.16988,-8.17871 z M 388.6357,646.27696 c -5.10391,-7.97462 -14.31688,-15.55267 -19.37112,-32.69112 -22.06818,-41.8588 -26.54581,-89.79361 -38.12483,-134.95942 0.68058,-19.1124 -2.47265,-39.18136 0.9613,-57.90981 4.41924,-17.86656 39.33878,-65.97496 0.19009,-43.05177 -41.83301,-3.51242 -40.28508,49.65354 -48.44426,78.67398 -8.31238,37.4562 -10.03728,77.85576 8.23791,112.84676 5.37012,15.68324 13.84545,27.59489 22.45782,41.04146 2.56915,14.14634 20.40955,24.27963 16.07244,22.58054 17.18211,11.53101 36.94322,19.49305 58.02065,13.46938 z M 323.05484,625.3125 c -4.18138,-5.96787 7.60587,7.3651 0,0 z m 426.2325,-83.97222 c 13.83038,-13.61326 35.66653,-29.73237 30.84527,-51.70419 -3.67203,-30.83537 -7.09526,-65.36468 -31.68013,-87.3546 -24.80645,-30.18163 -50.92071,-61.06066 -83.29044,-82.84324 -19.30259,-2.9953 -14.21737,3.66835 -7.29643,13.08119 6.78485,9.22775 14.22545,24.63317 12.9038,32.63509 27.84831,48.65117 38.91816,99.87025 49.62855,154.42199 4.87519,9.16473 15.85062,29.6616 28.88938,21.76376 z M 295.08929,379.99304 c 33.75,-0.58865 62.53952,-7.29697 72.84264,-42.34422 25.65157,-32.3345 -17.39167,-40.438 -35.83484,-53.58162 -37.29519,3.81472 -73.43448,21.15893 -111.56828,11.73078 -18.4173,-0.0221 -37.85982,-14.12077 -55.07171,-2.71593 -9.75331,32.73135 15.07692,61.83597 43.34851,75.28902 26.04713,15.76093 57.03731,17.342 86.28368,11.62197 z M 677.8468,317.14278 c 13.79977,-10.07699 33.28303,-16.52767 43.68638,-34.43396 13.70417,-13.71013 11.99158,-11.66397 -0.26911,1.16257 -19.50885,20.07802 2.70011,-1.48609 10.58483,-9.89022 8.32783,-12.25098 5.34734,-4.42275 16.76789,-21.92392 15.28002,-26.98984 18.35114,-59.66306 10.05168,-90.0221 C 752.67144,126.64274 739.41462,91.641427 723.42536,60.27531 717.36072,52.732936 704.12404,33.205693 687.43576,21.723938 664.17863,2.0748441 691.68573,25.55615 682.07873,15.98616 667.71608,5.8994208 666.93845,1.9794974 646.94596,-6.2591814 598.60984,-29.97055 543.14411,-21.614148 491.14118,-23.302985 455.25323,-25.190199 420.9965,-13.791383 390.15423,3.7609201 376.9754,9.5267567 375.62113,13.584842 364.47171,21.279833 c 0.44124,-2.360852 -22.8629,23.339839 -24.32497,23.905646 10.14449,-13.783422 -14.05738,19.861491 -12.24495,16.562891 -12.83338,28.251303 -30.06573,58.1051 -27.08392,91.24416 -1.21911,34.31516 9.44174,68.13766 21.40238,99.84209 13.87018,21.78212 26.0779,45.48824 55.08262,49.24521 12.0166,2.37345 23.00607,-14.09003 39.52731,-4.554 21.95387,5.00404 45.01232,6.72356 67.36768,6.10653 35.55587,-15.69117 72.66735,-1.39055 108.57502,5.56042 28.31799,3.91861 56.62281,9.24991 85.07392,7.95 z m 27.86749,-17.61473 c 4.04707,-5.78996 4.40249,-0.97867 0,0 z m -350.86758,-57.4207 c -35.46447,-33.80955 -52.46898,-91.53669 -28.78315,-136.6787 15.98446,-38.858451 42.44996,-78.432538 85.48072,-89.719068 28.17569,-12.7958007 63.41285,-17.0559025 92.37996,-4.89695 20.10765,22.403179 57.64344,7.685926 84.53451,5.897587 36.90381,2.961591 83.50157,1.805005 106.22994,36.657262 11.21935,23.740492 37.68926,38.316053 42.03164,65.723809 15.64045,40.82469 8.09445,87.55096 -12.78264,124.77173 -11.94092,10.15195 -21.62661,24.34079 -38.50069,25.66237 -31.11786,6.47105 -61.40242,20.73982 -93.74345,17.96461 -36.01652,12.1027 -56.5896,-31.39708 -84.38858,-32.18002 -24.08046,27.07168 -60.14317,34.85114 -92.80198,17.81972 -21.27674,-7.27317 -42.95012,-15.34865 -59.65628,-31.02235 z m 122.91383,28.50179 c 16.55057,-9.26233 35.33414,-34.96465 53.27386,-12.16182 17.00463,23.29142 45.37548,27.64613 72.23657,25.29849 25.96558,-0.65039 50.62194,-12.11472 76.00915,-16.95818 12.74632,-2.08301 23.81934,-7.19878 32.07375,-17.35538 16.09134,-11.33799 18.6347,-32.75363 25.70241,-49.80754 8.94617,-35.11486 1.86344,-72.87037 -15.01444,-104.409795 C 694.21208,73.144019 685.04566,28.315617 642.97686,26.855597 608.34757,17.603061 573.33738,21.87935 538.60318,27.097534 507.63496,26.41617 483.81447,-3.4939217 450.25812,9.8711378 415.75485,13.239638 380.17602,29.899109 358.03063,57.606541 c -19.5444,29.16304 -39.04026,62.279669 -39.46333,98.256989 4.93826,46.24097 33.05431,92.9561 79.90829,105.98331 24.25573,5.18797 56.95308,29.25353 79.28495,8.7623 z m 24.20375,-50.0523 c -26.08205,-16.73768 -35.87815,-54.57498 -4.77393,-72.5376 28.40826,-21.92738 74.87243,9.47784 59.86994,43.32546 -1.80732,20.3388 -44.09144,47.67941 -55.09601,29.21214 z m 11.193,1.38683 c 23.84812,-3.15114 46.25551,-25.31208 41.97374,-49.31734 -6.86333,-28.40127 -45.38312,-37.11564 -63.56053,-13.74782 -27.20419,22.74197 4.4418,53.39544 21.58679,63.06516 z m -1.8191,-20.18155 c -8.93059,-7.30617 5.75453,-47.39461 5.86086,-30.39653 -12.15719,8.81737 7.677,50.73185 -5.86086,30.39653 z m 0.22999,-15.7465 c -2.14316,-2.14912 1.07921,6.98822 0,0 z m 84.65056,13.03769 c -33.40164,-15.47655 -54.79682,-63.80379 -30.15929,-95.61593 20.61493,-36.328979 79.05478,-28.69187 95.99777,7.43472 16.48458,30.22283 8.93774,78.80625 -28.23162,88.96349 -12.38534,0.8163 -25.50599,2.78865 -37.60686,-0.78228 z m 44.08936,-6.34826 c 44.18347,-24.14258 27.95665,-100.444935 -20.64538,-108.225201 -38.60595,-9.017922 -72.31289,36.651501 -56.21673,71.489541 10.24394,31.64624 45.21176,52.7736 76.86211,36.73566 z m -38.96881,-7.26256 c -20.91343,-2.99391 -33.42939,-17.62296 -34.82009,-38.61175 -0.62484,-16.66023 5.57359,-38.04667 22.82794,-44.19887 27.16434,-20.907606 64.96769,11.93842 61.35809,42.35844 -0.85586,24.94838 -23.74596,46.82542 -49.36594,40.45218 z m 26.10296,-6.41907 c 29.7271,-17.64605 25.15662,-65.74059 -7.63268,-77.13061 -15.83843,-7.190555 -38.98517,3.86961 -44.80156,20.31478 -10.48416,16.29856 -6.49364,46.55063 12.32803,54.1665 12.01128,6.4605 27.80084,10.78658 40.10621,2.64933 z m -13.07374,-44.62037 c 22.0762,-19.59154 -25.48393,-30.04936 -11.70835,-2.18119 2.60388,3.8716 7.91319,2.83932 11.70835,2.18119 z m 0.46413,-5.89415 c -26.28743,11.62888 2.06626,-34.021836 0,0 z m -187.75209,55.14476 c -36.73629,-4.9047 -50.85212,-47.72383 -36.25983,-78.41512 12.22369,-33.206701 60.45638,-53.2182 87.66918,-26.126589 31.14283,29.571609 16.50446,88.111709 -24.04562,101.257069 -8.50808,3.98422 -18.15381,5.172 -27.36373,3.28464 z m 21.42354,-5.5164 c 12.20202,1.90949 44.95255,-37.48089 24.89333,-18.30262 -21.53536,27.7625 -71.69095,10.34411 -71.12047,-24.59801 -5.14235,-36.146084 34.4533,-59.018276 65.29467,-43.044869 19.63401,3.395692 20.61342,52.560119 20.77514,43.864919 13.06169,-31.49245 -15.6021,-73.163953 -50.85939,-64.658541 -39.78381,7.313155 -63.01929,60.993351 -37.3244,93.283181 13.14541,10.7628 31.14861,20.22691 48.34112,13.45594 z m 7.63085,-10.45994 c 44.28625,-11.88537 32.66544,-79.024816 -11.04118,-77.521312 -36.17062,-2.914591 -53.90331,48.575962 -27.11961,70.802612 10.09753,8.23554 26.10259,14.46092 38.16079,6.7187 z m -13.47478,-41.70546 c -7.14314,-49.817906 43.30513,10.73014 0,0 z m 13.15408,-4.90862 c -3.65852,-32.995576 -24.5889,17.75148 0,0 z M 488.176,140.625 302.24959,380.32837 Z m 60.03829,137.69374 c -5.32127,-6.2711 -7.593,-5.27362 0,0 z m -7.5,-6.16477 c -14.30209,-14.59714 -23.38565,-22.72334 -4.523,-3.67456 l 2.85469,2.81663 z M 706.33929,258.75 c 15.80223,-17.72865 -18.74228,17.91635 0,0 z m 18.125,-17.13526 c -17.60595,15.84406 -12.58229,13.07514 0,0 z m -358.75,7.954 c -5.32127,-6.2711 -7.593,-5.27362 0,0 z m -7.5,-6.22585 c -7.78801,-8.80941 -7.4262,-5.12626 0,0 z m -8.75,-7.52415 c -5.32127,-6.2711 -7.593,-5.27362 0,0 z m 381.25,-131.16477 c -2.61495,-5.984908 0.46602,-5.881704 0,0 z M 351.33929,61.25 c 6.39472,-8.940379 -9.32828,9.090694 0,0 z m 7.57864,-9.0625 c 11.3111,-12.132767 -13.39891,12.528096 0,0 z m 333.04636,-2.57864 c -10.90206,-11.539504 -8.86077,-6.912396 0,0 z m -325,-6.48386 c 8.8265,-11.112722 -11.76362,11.282948 0,0 z m 315,-2.26614 c -10.90205,-11.53949 -8.86078,-6.912405 0,0 z M 379.62374,32.8125 c 3.86142,-5.627406 -6.97661,6.653888 0,0 z m 320.4421,1.875 c -12.88212,-13.10285 -13.63926,-14.08071 -0.0348,-0.696994 13.03253,11.984651 19.02935,20.387102 0.0348,0.696994 z m -353.10155,2.421364 c 10.90204,-11.539486 8.86078,-6.91242 0,0 z"
     id="path3346"
     inkscape:connector-curvature="0"
     sodipodi:nodetypes="cccccccccccccccccccccccccccccccccccccccccccccccccccccccccccccccccccccccccccccccccsccccccccccccccccccccccccccccccccccccccccccccccccccccccccccccccccccccccccccccccccccccccccccccccccccccccccccccccccccccccccccccccccccccccccccccccccccccccccccccc" />
</svg>
