<?xml version="1.0" encoding="UTF-8" standalone="no"?>
<!-- Created with Inkscape (http://www.inkscape.org/) -->

<svg
   xmlns:dc="http://purl.org/dc/elements/1.1/"
   xmlns:cc="http://creativecommons.org/ns#"
   xmlns:rdf="http://www.w3.org/1999/02/22-rdf-syntax-ns#"
   xmlns:svg="http://www.w3.org/2000/svg"
   xmlns="http://www.w3.org/2000/svg"
   xmlns:sodipodi="http://sodipodi.sourceforge.net/DTD/sodipodi-0.dtd"
   xmlns:inkscape="http://www.inkscape.org/namespaces/inkscape"
   id="svg3336"
   version="1.1"
   inkscape:version="0.91 r13725"
   width="1200"
   height="770"
   viewBox="0 0 1200 770"
   sodipodi:docname="KwizicOwl.svg">
  <metadata
     id="metadata3342">
    <rdf:RDF>
      <cc:Work
         rdf:about="">
        <dc:format>image/svg+xml</dc:format>
        <dc:type
           rdf:resource="http://purl.org/dc/dcmitype/StillImage" />
        <dc:title></dc:title>
      </cc:Work>
    </rdf:RDF>
  </metadata>
  <defs
     id="defs3340" />
  <sodipodi:namedview
     pagecolor="#ffffff"
     bordercolor="#666666"
     borderopacity="1"
     objecttolerance="10"
     gridtolerance="10"
     guidetolerance="10"
     inkscape:pageopacity="0"
     inkscape:pageshadow="2"
     inkscape:window-width="1366"
     inkscape:window-height="706"
     id="namedview3338"
     showgrid="false"
     inkscape:zoom="0.98994949"
     inkscape:cx="534.96421"
     inkscape:cy="540.06151"
     inkscape:window-x="-8"
     inkscape:window-y="-8"
     inkscape:window-maximized="1"
     inkscape:current-layer="svg3336" />
  <path
     style="fill:#000000"
     d="m 523.99001,704.0625 c -6.91456,-10.76901 -7.85423,-18.40902 -5.47846,-44.54265 0.3102,-3.41218 -0.0738,-3.71721 -7.17226,-5.6985 -4.125,-1.15135 -8.66644,-2.73011 -10.09209,-3.50838 -1.42565,-0.77825 -7.29356,-2.22693 -15.39056,-3.62525 l -17.98044,2.83198 c -5.4359,2.32666 -10.53672,4.23891 -11.33517,4.24944 -4.4045,0.0581 -4.7759,1.82416 -2.78145,13.22642 2.81755,16.10795 2.56227,22.37307 -1.17115,28.74368 -2.82404,4.81885 -3.80138,5.47411 -10.12187,6.78624 -7.6654,1.59133 -8.07133,1.52956 -17.89006,-2.72209 -4.41373,-1.91121 -6.92596,-2.44723 -7.23257,-1.54315 -1.87384,5.5252 -3.54209,6.10696 -17.52355,6.11091 l -13.60107,0.004 -5.36197,-4.45304 -5.36198,-4.45303 -4.06686,4.06686 c -4.96245,4.96245 -8.70411,6.00341 -17.58875,4.89335 -7.9575,-0.99423 -10.4371,-3.60708 -14.42616,-15.20149 -2.74676,-7.9835 -3.25274,-24.10692 -1.1918,-37.97755 1.04099,-7.00605 0.92685,-8.29715 -0.82874,-9.375 -1.1198,-0.6875 -5.81097,-4.46348 -10.42484,-8.39105 -7.64287,-6.50604 -9.67707,-9.39611 -22.87532,-32.5 -14.2797,-24.99701 -23.22922,-45.35356 -27.63521,-62.85895 -3.09725,-12.30562 -4.97489,-40.51334 3.49156,-83.01369 8.46645,-42.50036 9.59356,-47.90129 15.27112,-59.99397 3.03614,-6.46672 5.27674,-12.00119 4.97911,-12.29883 -0.29764,-0.29764 -4.38169,0.0346 -9.07567,0.73835 -4.69399,0.70373 -14.72385,1.66095 -22.2886,2.12715 -24.82517,1.52994 -51.37397,-6.09287 -71.87091,-20.63587 -18.04865,-12.8059 -25.14441,-19.19451 -28.36739,-25.54036 -2.87342,-5.65758 -2.98872,-6.53923 -6.20695,-20.8034 -3.21822,-14.26417 -3.24211,-14.38174 -1.76042,-21.47022 l 1.49263,-7.14084 8.40573,-2.70725 8.40573,-2.70724 18.70283,3.88804 c 43.25794,8.99269 64.53728,9.20634 90.57784,0.90944 13.58914,-4.3297 22.91384,-6.24379 38.43783,-7.89016 l 9.06282,-0.96115 -10.03554,-15.08862 c -11.38361,-17.11548 -14.88186,-26.61656 -23.79715,-64.63192 -4.55392,-19.41826 -4.91765,-22.33287 -4.91368,-39.375 0.006,-25.56454 1.99442,-44.9127 5.5906,-54.39695 5.40841,-14.263691 20.32693,-44.25905 26.73818,-53.76013 8.18738,-12.13316 24.99844,-29.046341 40.80679,-41.054681 17.16936,-13.04219343 52.76424,-30.900422 68.99556,-34.615614 18.44759,-4.222478 46.7867,-5.605506 99.04945,-4.833895 67.82089,1.001314 84.16603,3.509609 111.12948,17.053725 17.06811,8.5735556 27.85362,16.7951966 49.61981,37.824475 30.08786,29.06922 37.67908,42.46891 56.15853,99.12861 4.30278,13.19275 9.58213,41.89115 11.98862,65.16971 1.32856,12.85166 1.22805,14.86581 -1.30996,26.25 -3.37581,15.14211 -13.60443,36.85939 -21.99769,46.70529 -3.22339,3.78125 -13.2665,14.46875 -22.31804,23.75 -14.69103,15.06388 -17.96342,17.7362 -30.4901,24.89914 -7.71801,4.41327 -13.877,8.38687 -13.68663,8.83022 0.19037,0.44335 8.22112,7.90168 17.84612,16.57407 21.38276,19.26643 26.09079,24.77092 41.86236,44.05358 15.77157,19.28266 21.51863,24.81027 26.38569,31.27405 6.98719,9.27948 7.00701,9.33126 12.78138,33.39391 4.84602,20.19417 5.90237,26.83494 6.51792,40.97503 l 0.73461,16.875 -4.14568,7.11192 c -7.09024,12.16333 -22.38437,28.80792 -29.55784,32.16779 -5.69279,2.66636 -6.71885,2.79404 -10.44566,1.29981 -2.27303,-0.91133 -6.55191,-4.22704 -9.50862,-7.36825 l -5.37585,-5.71127 0.79987,6.25 c 1.1984,9.36412 -1.51367,29.64585 -5.83815,43.65961 -8.90913,28.87056 -19.47608,48.74139 -37.10665,69.77789 -7.30798,8.71975 -8.55975,9.6875 -21.14407,8.20479 -12.58431,-1.48271 -18.68945,0.003 -22.0263,1.17972 l -6.06699,2.13998 0.76565,5.644 c 0.4211,3.10421 1.11943,9.96225 1.55184,15.2401 0.72565,8.85722 0.53302,10.02809 -2.502,15.20695 -2.91947,4.9817 -3.99696,5.76287 -9.60887,6.96641 -8.51559,1.82628 -8.73992,1.80221 -16.38602,-1.75724 -8.32251,-3.87433 -9.0741,-3.87518 -10.83418,-0.0125 -1.40332,3.07995 -1.63597,3.12433 -16.13814,3.07807 l -14.7143,-0.0469 -4.78951,-4.10106 -4.78952,-4.10105 -4.14798,4.14799 c -4.01333,4.01356 -4.47613,4.14822 -14.25525,4.14822 l -10.10726,0 -3.00976,-4.6875 z m 20.4378,0.33136 c 1.97417,-1.02087 4.79703,-3.55212 6.27306,-5.625 1.47601,-2.07287 3.27041,-3.76886 3.98756,-3.76886 0.71715,0 3.91322,2.17975 7.10239,4.8439 6.62805,5.5369 12.71531,7.0493 23.13366,5.74761 6.07257,-0.75872 7.0205,-1.27711 8.39261,-4.58971 1.36258,-3.28954 1.99763,-3.64421 5.33124,-2.97749 2.08141,0.41628 6.7175,2.0997 10.30242,3.74093 5.61145,2.56901 7.29864,2.81756 12.13048,1.78703 4.87035,-1.03875 5.99449,-1.91718 8.50185,-6.64358 2.81746,-5.31099 2.84831,-5.73683 1.23927,-17.10534 -2.28497,-16.14428 -2.57476,-16.68278 -10.34143,-19.21701 -3.6529,-1.19193 -7.3288,-2.71085 -8.16869,-3.37538 -0.83989,-0.66453 -3.65156,-1.68741 -6.24818,-2.27304 -4.22591,-0.9531 -5.04908,-0.70877 -7.84793,2.32929 -1.71975,1.86675 -6.30129,4.46641 -10.18119,5.77704 l -7.05435,2.38295 -15.62911,-5.87984 -15.6291,-5.87985 -11.69154,1.39273 c -6.43035,0.76598 -12.32098,2.05017 -13.09029,2.85373 -4.39906,4.59493 -5.41645,23.23527 -1.83615,33.64158 4.15569,12.07874 5.8956,13.70882 15.48448,14.50716 1.23726,0.103 3.8648,-0.64797 5.83894,-1.66885 z m -180,-5 c 1.97417,-1.02087 4.79703,-3.55212 6.27306,-5.625 1.47601,-2.07287 3.27041,-3.76886 3.98756,-3.76886 0.71715,0 3.91322,2.17975 7.10238,4.8439 6.62805,5.5369 12.71532,7.0493 23.13367,5.74761 6.07257,-0.75872 7.0205,-1.27711 8.39261,-4.58971 1.36257,-3.28954 1.99762,-3.64421 5.33124,-2.97749 2.08141,0.41628 6.7175,2.0997 10.30242,3.74093 5.61145,2.56901 7.29864,2.81756 12.13048,1.78703 4.8754,-1.03982 5.99352,-1.91537 8.5143,-6.66707 2.81946,-5.31473 2.85412,-5.76524 1.22065,-15.86512 -0.92466,-5.71729 -1.93289,-12.64508 -2.24051,-15.39508 l -0.55929,-5 -6.73043,0.42554 c -4.4642,0.28226 -9.17367,-0.41999 -13.9866,-2.0856 -6.63741,-2.29703 -9.70479,-2.46965 -35.97065,-2.02448 -25.90412,0.43906 -29.5321,0.2432 -37.06839,-2.00121 -4.59465,-1.36834 -8.60137,-3.18008 -8.90383,-4.02608 -1.77605,-4.9677 -4.57527,10.08534 -4.61705,24.82864 -0.0408,14.3508 5.87435,28.64505 12.25775,29.62208 6.46351,0.98928 7.87306,0.86966 11.43063,-0.97003 z m 229.50325,-43.56101 c 0.80409,-1.82119 14.56719,-18.85139 22.71544,-28.10767 18.97891,-21.55974 26.14944,-34.78015 40.62511,-76.75667 14.47567,-41.97653 14.55929,-42.23606 17.21667,-60.50843 2.25765,-15.52379 2.54092,-21.40427 1.82369,-37.85685 -0.4901,-11.24258 -1.85688,-24.11452 -3.23255,-30.44355 -1.31088,-6.03093 -4.3511,-25.94079 -6.75606,-44.24414 l -4.37264,-33.27883 -7.18072,-8.70327 c -3.94938,-4.7868 -8.30571,-10.03464 -9.68071,-11.66188 -3.10966,-3.6801 -18.32589,-7.2054 -40,-9.26722 -8.25,-0.78481 -20.43635,-2.79198 -27.08077,-4.46038 -17.46515,-4.38543 -28.42062,-6.60895 -45.71707,-9.27868 -15.27703,-2.35804 -15.30847,-2.35773 -23.125,0.23218 -4.30493,1.42639 -8.7152,3.36049 -28.33087,6.64058 -1.31385,1.13484 -49.86619,-2.93165 -49.86619,-2.93165 -10.23144,-4.9678 -18.38614,-5.23487 -25.14266,-7.62293 -0.97006,0.3202 -14.5053,2.54002 -14.5053,2.54002 l -4.63781,7.16278 c -3.1177,4.81509 -5.27667,10.19977 -6.58693,16.42853 -1.49156,7.09066 -3.09472,10.75069 -6.82942,15.59154 -5.55309,7.19783 -10.85504,18.42887 -16.91188,35.82417 -2.2991,6.60303 -6.51602,16.65126 -9.37094,22.32941 -2.85492,5.67815 -6.83987,14.60659 -8.85546,19.84099 -3.63778,9.44715 -3.6647,9.71147 -3.6647,35.97641 0,22.8219 0.3396,27.55884 2.47029,34.4572 1.35865,4.39882 4.2113,15.28619 11.63323,49.00661 7.42193,33.72042 7.88947,35.84082 13.04044,48.65552 3.05412,7.59807 7.27394,17.22399 9.3774,21.39091 2.10345,4.16694 4.87324,10.62454 6.15506,14.35022 1.79192,5.20829 10.49599,18.71534 16.97181,26.33696 0.28026,0.32984 7.64593,0.61109 16.36816,0.625 12.58488,0.02 17.08935,0.51382 21.82055,2.39192 5.2742,2.09365 6.95285,2.20301 14.55219,0.948 4.72465,-0.78025 13.29177,-3.44382 19.03807,-5.91904 l 19.98469,-2.93574 c 9.5369,1.56464 16.59309,3.25847 18.44921,4.2183 1.85611,0.95984 6.91158,2.66164 11.23434,3.78178 6.77337,1.75515 9.87526,1.84194 22.44457,0.62798 l 14.58499,-1.40867 14.375,5.56678 14.375,5.56677 6.25,-2.44856 c 3.4375,-1.3467 6.2913,-2.54209 6.34177,-2.6564 z m 43.19308,2.4061 c 2.31832,-0.96857 8.90447,-2.44666 18.12322,-1.15055 9.21875,1.2961 19.73574,2.26232 18.51044,0.27975 -0.33897,-0.54847 0.94694,-2.5984 2.85759,-4.5554 2.8348,-2.90357 3.01397,-2.97219 0.9739,-0.37296 l -2.5,3.18521 3.39898,-2.9942 c 1.86943,-1.64681 3.13807,-3.41634 2.8192,-3.9323 -0.31888,-0.51595 0.40158,-2.00756 1.60102,-3.31471 1.19944,-1.30714 1.64542,-1.50635 0.99109,-0.4427 -0.99887,1.62367 -0.8986,1.67322 0.625,0.30891 0.99808,-0.89375 1.88502,-2.15937 1.97096,-2.8125 0.086,-0.65313 0.22656,-1.7832 0.3125,-2.51127 0.086,-0.72808 0.73269,-0.96752 1.43722,-0.53209 0.70453,0.43542 1.20042,0.328 1.10198,-0.23873 -0.44346,-2.5528 0.22645,-4.23533 1.39802,-3.51127 0.70453,0.43542 1.20042,0.328 1.10198,-0.23873 -0.44346,-2.5528 0.22645,-4.23533 1.39802,-3.51127 0.70453,0.43542 1.20042,0.328 1.10198,-0.23873 -0.44346,-2.5528 0.22645,-4.23533 1.39802,-3.51127 0.70453,0.43542 1.20042,0.328 1.10198,-0.23873 -0.44346,-2.5528 0.22645,-4.23533 1.39802,-3.51127 0.70453,0.43542 1.13992,0.328 0.96752,-0.23873 -0.1724,-0.56672 2.57765,-7.8421 6.11122,-16.1675 13.06473,-30.78163 17.93654,-53.57762 15.38413,-71.98486 -0.69615,-5.02042 -1.78734,-10.5343 -2.42487,-12.25305 -0.63752,-1.71875 -2.91635,-11.84375 -5.06405,-22.5 -8.34473,-41.40402 -16.87593,-71.12982 -27.27407,-95.03275 -9.3535,-21.50154 -16.76524,-35.73842 -15.92634,-30.59225 0.33621,2.0625 1.50851,10.5 2.60513,18.75 1.0966,8.25 3.03571,19.78125 4.30912,25.625 1.4292,6.55861 2.64416,18.99696 3.17458,32.5 0.74247,18.9016 0.49237,24.38573 -1.8399,40.34611 -2.68268,18.35833 -2.77141,18.63408 -16.52903,56.38944 -13.75762,37.75536 -14.19075,39.33236 -17.56417,47.31008 -1.37698,3.25633 -3.01401,5.60516 -3.63788,5.21958 -0.62386,-0.38557 -1.05375,-0.23735 -0.95531,0.32938 0.46263,2.66309 -0.24989,4.22085 -1.56019,3.41105 -0.8194,-0.50641 -1.10648,-0.3472 -0.66423,0.36837 0.78217,1.26558 -5.88432,12.87599 -7.39315,12.87599 -0.44308,0 -0.0336,-0.98437 0.90997,-2.1875 1.55245,-1.97954 1.5089,-2.02549 -0.45819,-0.48336 -1.19555,0.93727 -1.8758,2.18619 -1.51166,2.77539 0.36414,0.58918 -1.18894,2.94211 -3.45126,5.22872 -3.76736,3.8078 -3.85049,3.8372 -0.98834,0.34963 l 3.125,-3.80788 -4.01805,3.62878 c -2.20994,1.99583 -3.73394,4.08851 -3.38667,4.65038 0.34727,0.56189 -1.21962,2.89248 -3.48194,5.17909 -3.76736,3.8078 -3.85049,3.8372 -0.98834,0.34963 l 3.125,-3.80788 -4.01805,3.62878 c -2.20994,1.99583 -3.75982,4.04661 -3.4442,4.5573 0.31561,0.51068 -0.40751,1.99798 -1.60695,3.30513 -1.19944,1.30714 -1.6183,1.50635 -0.9308,0.4427 1.08284,-1.6753 0.96281,-1.70892 -0.89754,-0.25152 -1.18115,0.92531 -2.09891,2.05031 -2.03947,2.5 0.31705,2.39885 -0.32671,4.00442 -1.35161,3.371 -0.64,-0.39555 -1.52557,-0.13355 -1.96792,0.58219 -0.44236,0.71575 -0.3406,1.19812 0.22613,1.07195 0.56672,-0.12619 1.87416,0.0559 2.90541,0.40451 3.33648,1.12805 10.44985,3.74402 18.125,6.66555 9.28698,3.53506 8.2676,3.43251 13.28485,1.33636 z M 388.6357,646.27696 c 0.57554,-0.54713 0.348,-1.42643 -0.50564,-1.95401 -1.06493,-0.65817 -1.26618,-0.40821 -0.64121,0.79641 0.50096,0.9656 0.0434,0.6884 -1.01682,-0.61601 -1.06022,-1.30441 -1.65525,-2.81241 -1.32232,-3.35112 0.33295,-0.53872 -0.0533,-1.38652 -0.85817,-1.88399 -0.97053,-0.59983 -1.1567,-0.31313 -0.55269,0.85112 0.50096,0.9656 0.0434,0.6884 -1.01682,-0.61601 -1.06022,-1.30441 -1.65525,-2.81241 -1.32232,-3.35112 0.33295,-0.53872 -0.0533,-1.38652 -0.85817,-1.88399 -0.97356,-0.6017 -1.15331,-0.31675 -0.53691,0.85112 0.50963,0.9656 -0.23478,0.34939 -1.65423,-1.36936 -1.41946,-1.71875 -3.51571,-5.9375 -4.65832,-9.375 -1.14263,-3.4375 -3.92683,-9.95194 -6.18712,-14.47653 -2.26028,-4.52458 -6.60487,-14.43427 -9.65462,-22.02152 -5.13329,-12.7707 -5.6136,-14.9441 -13.05306,-48.73143 -7.43947,-33.78733 -10.25405,-44.5122 -11.6127,-48.91101 -2.15915,-6.99051 -2.47029,-11.64532 -2.47029,-36.9572 l 0,-28.95933 3.6647,-9.51708 c 2.01559,-5.2344 6.03096,-14.22156 8.92306,-19.97149 4.76691,-9.47733 9.91224,-22.43785 9.91224,-24.96787 0,-0.54839 -4.67295,1.15161 -10.38433,3.7778 -8.45633,3.88835 -12.4597,4.94652 -21.5625,5.69943 -6.148,0.5085 -12.05718,1.39122 -13.13153,1.96157 -1.07435,0.57036 -4.81896,7.12049 -8.32135,14.55584 -6.61487,14.04292 -7.57975,18.44207 -15.9677,60.48264 -8.38795,42.04057 -6.60495,67.39768 -3.62895,79.28618 2.08585,8.33251 11.8919,34.80966 15.54167,41.96383 1.29116,2.53088 1.9498,5.04269 1.46363,5.5818 -0.48616,0.5391 -0.2461,0.61589 0.53348,0.17066 1.38982,-0.79374 5.14938,6.19302 4.47382,8.31412 -0.1805,0.56673 0.18297,0.7145 0.80772,0.32839 1.16225,-0.71831 4.78528,6.55975 4.19228,8.42161 -0.1805,0.56673 0.20776,0.69919 0.8628,0.29435 1.16846,-0.72215 3.38526,3.93047 2.83765,5.95565 -0.15325,0.56673 0.23252,0.7145 0.85727,0.32839 1.16225,-0.71831 4.78528,6.55975 4.19228,8.42161 -0.1805,0.56673 0.18297,0.7145 0.80772,0.32839 1.03286,-0.63835 4.24095,5.28319 4.14455,7.65009 -0.0674,1.65573 3.79551,5.35047 4.88809,4.67523 0.56236,-0.34756 2.62365,0.93133 4.58065,2.84198 2.90357,2.8348 2.97219,3.01397 0.37296,0.9739 l -3.18521,-2.5 3.02576,3.43258 c 1.66418,1.88791 3.27955,3.17877 3.58974,2.86858 0.66424,-0.66423 12.54112,5.1399 15.2595,7.45718 4.34709,3.70567 14.13089,5.49912 26.25,4.81185 6.53125,-0.37039 12.34589,-1.1211 12.92141,-1.66823 z M 323.05484,625.3125 c -1.55484,-1.98258 -1.51063,-2.02679 0.47195,-0.47195 2.08219,1.63296 2.74435,2.65945 1.71555,2.65945 -0.25956,0 -1.24394,-0.98438 -2.1875,-2.1875 z m 170.47195,20.10965 c -0.85938,-0.34676 -2.26563,-0.34676 -3.125,0 -0.85938,0.34676 -0.15625,0.63049 1.5625,0.63049 1.71875,0 2.42187,-0.28373 1.5625,-0.63049 z m -7.5,-1.25 c -0.85938,-0.34676 -2.26563,-0.34676 -3.125,0 -0.85938,0.34676 -0.15625,0.63049 1.5625,0.63049 1.71875,0 2.42187,-0.28373 1.5625,-0.63049 z M 749.28734,541.34028 c 5.53898,-2.82578 21.51091,-20.95424 27.42284,-31.12547 l 4.1209,-7.08981 -0.74435,-14.375 c -0.56175,-10.8487 -2.15573,-20.28694 -6.49784,-38.47502 -5.75046,-24.08728 -5.75721,-24.10495 -12.75155,-33.39392 -4.86706,-6.46378 -10.61413,-11.99139 -26.36652,-31.23446 -15.75238,-19.24307 -20.50612,-24.81627 -41.25653,-43.46491 -9.28125,-8.34118 -18.4731,-16.72846 -20.42632,-18.63844 -4.26284,-4.16844 -9.72297,-5.37501 -19.05004,-4.20967 -8.0135,1.00122 -8.28268,-0.081 3.51457,14.13093 6.64164,8.00108 7.25626,9.28545 8.44101,17.63897 0.70278,4.95525 1.85052,9.68723 2.55052,10.51552 2.03241,2.40489 14.35846,28.33811 21.68757,45.62929 9.48315,22.37307 17.6115,51.13202 25.68515,90.87671 4.00264,19.70405 6.24776,28.125 7.49845,28.125 0.41293,0 3.2552,3.13856 6.31618,6.97459 5.34006,6.69216 10.0853,10.36874 13.52021,10.47536 0.88676,0.0275 3.73785,-1.03432 6.33575,-2.35967 z M 295.08929,379.99304 c 8.25,-1.29644 19.5,-2.7563 25,-3.24415 8.01312,-0.71075 12.32836,-1.96604 21.7187,-6.31794 C 348.25326,367.44393 354.19765,365 355.01774,365 c 0.82007,0 3.3807,-4.57684 5.69026,-10.17075 2.30956,-5.59391 6.62301,-13.39512 9.58544,-17.33602 4.1667,-5.54293 5.81474,-9.20227 7.27871,-16.16173 1.04085,-4.94805 2.42656,-9.99444 3.07936,-11.21421 1.00837,-1.88414 0.11513,-2.70988 -5.93765,-5.48896 -3.91851,-1.79915 -9.0287,-3.63793 -11.35596,-4.08617 -19.84047,-6.08914 -17.94775,-17.44402 -31.26081,-16.47496 -12.92438,0.9552 -31.3708,4.31036 -44.93149,8.96243 -6.14146,2.10686 -14.44541,3.61318 -25.12275,4.55726 -18.39221,1.62619 -36.83276,-0.1377 -66.12807,-6.32536 l -16.6745,-3.52194 -7.33349,2.47655 c -6.99866,2.36349 -7.38439,2.71471 -8.44839,7.69271 -1.01694,4.75788 -0.6802,6.02028 2.15125,21.55274 2.83145,15.53246 5.67755,21.19386 16.24163,29.76532 23.33122,18.93047 38.03035,26.73853 59.48801,31.59962 14.59762,3.30698 28.80356,3.0867 53.75,-0.83349 z M 677.8468,317.14278 c 0.82914,-0.0328 1.21781,-0.52819 0.86373,-1.10112 -0.59994,-0.97071 1.29222,-1.56989 3.65917,-1.15871 0.56673,0.0985 0.69919,-0.35695 0.29435,-1.01199 -0.72215,-1.16846 3.93046,-3.38526 5.95565,-2.83765 0.56673,0.15325 0.7145,-0.23252 0.32839,-0.85727 -0.71831,-1.16225 6.55975,-4.78528 8.42161,-4.19228 0.56673,0.1805 0.7145,-0.18297 0.32839,-0.80772 -0.68144,-1.10259 6.10855,-4.62931 7.20635,-3.74298 1.02562,0.82806 5.75384,-4.26241 5.03676,-5.42267 -0.39277,-0.63552 4.82361,-6.62123 11.59198,-13.30157 l 12.30611,-12.14606 -11.25,11.90612 -11.25,11.90612 12.12306,-11.78614 c 6.66768,-6.48237 11.85441,-12.22078 11.52609,-12.75204 -0.32833,-0.53125 0.9663,-2.56707 2.87695,-4.52407 2.8348,-2.90358 3.01397,-2.97219 0.9739,-0.37296 l -2.5,3.18521 3.38219,-2.97842 c 1.86021,-1.63814 3.34047,-3.32564 3.28947,-3.75 -0.2975,-2.47574 0.37098,-3.94052 1.48431,-3.25244 0.70453,0.43542 1.15559,0.328 1.00234,-0.23873 -0.61802,-2.28557 1.71206,-6.65425 3.11919,-5.84816 0.80987,0.46396 1.10665,0.4344 0.6595,-0.0656 -0.44715,-0.50009 1.58935,-6.07464 4.52556,-12.38792 2.93621,-6.31326 6.53689,-16.72625 8.00151,-23.13997 2.342,-10.25581 2.51274,-13.043 1.41664,-23.125 -2.42726,-22.32614 -7.88304,-51.62758 -11.90971,-63.96369 -7.96875,-24.41301 -15.58955,-44.412101 -21.11869,-55.42129 -3.08259,-6.13781 -5.31362,-11.45073 -4.95785,-11.80651 0.35578,-0.35577 -0.04,-1.07135 -0.87944,-1.59017 -1.03747,-0.64119 -1.23458,-0.38103 -0.61546,0.81234 0.50096,0.96559 0.0434,0.68839 -1.01682,-0.61602 -1.06021,-1.30441 -1.65525,-2.81242 -1.32232,-3.35113 0.33295,-0.53871 -0.0533,-1.3865 -0.85817,-1.88398 -0.97053,-0.59983 -1.1567,-0.31312 -0.55269,0.85113 0.50096,0.96559 0.0434,0.68839 -1.01682,-0.61602 -1.06021,-1.30441 -1.65525,-2.81242 -1.32232,-3.35113 0.33295,-0.53871 -0.0533,-1.3865 -0.85817,-1.88398 -0.97053,-0.59983 -1.1567,-0.31312 -0.55269,0.85113 0.50096,0.96559 0.0434,0.68839 -1.01682,-0.61602 -1.06021,-1.30441 -1.69364,-2.75031 -1.4076,-3.21312 0.7884,-1.27567 -23.91775,-25.455176 -26.37867,-25.816362 -1.18023,-0.173222 -4.15977,-2.449289 -6.62118,-5.057927 l -4.47529,-4.743027 5,4.351017 5,4.351019 -4.26056,-4.63886 c -2.34332,-2.551374 -4.65108,-4.397518 -5.12835,-4.102541 -0.47728,0.294975 -1.93503,-0.331127 -3.23944,-1.391337 -1.30441,-1.0602114 -1.58161,-1.5177814 -0.61601,-1.0168234 1.16425,0.6040164 1.45095,0.417841 0.85112,-0.552693 -0.49747,-0.80494 -1.36955,-1.176116 -1.93792,-0.824836 -0.56839,0.351279 -2.1029,-0.34267 -3.41005,-1.54211 -1.30714,-1.19944 -1.50635,-1.645429 -0.4427,-0.991085 1.62367,0.99886 1.67322,0.898597 0.30891,-0.625 -0.89375,-0.998094 -2.15937,-1.885028 -2.8125,-1.970965 -0.65313,-0.08594 -1.7832,-0.226563 -2.51127,-0.3125 -0.72808,-0.08594 -0.91914,-0.859375 -0.42459,-1.71875003 0.49455,-0.859375 0.46241,-1.16904 -0.0714,-0.688145 -0.53382,0.480895 -7.59817,-2.44795597 -15.69857,-6.50855597 -16.41839,-8.2302986 -31.73443,-12.6530796 -51.85667,-14.9745586 -18.9663,-2.188121 -98.90254,-3.085144 -122.29564,-1.372369 -29.80816,2.182469 -38.52262,4.603318 -65.99885,18.3342796 -12.81197,6.402649 -23.58377,11.351903 -23.93734,10.99834 -0.35356,-0.353561 -1.06732,0.044 -1.58613,0.88346 -0.6412,1.03748 -0.38104,1.234593 0.81232,0.615468 0.9656,-0.500958 0.6884,-0.04339 -0.61601,1.016823 -1.30441,1.0602104 -2.81241,1.6552494 -3.35113,1.3223074 -0.53871,-0.332942 -1.38651,0.05324 -1.88398,0.858177 -0.59983,0.970534 -0.31313,1.156709 0.85112,0.552693 0.9656,-0.500958 0.6884,-0.04339 -0.61601,1.016824 -1.30441,1.06021 -2.81241,1.655248 -3.35113,1.322306 -0.53871,-0.332941 -1.38651,0.05324 -1.88398,0.858177 -0.59983,0.970534 -0.31313,1.156709 0.85112,0.552693 0.9656,-0.500958 0.6884,-0.04339 -0.61601,1.016824 -1.30441,1.06021 -2.78755,1.670617 -3.29588,1.35646 -0.50831,-0.314159 -1.69106,0.406985 -2.62833,1.60254 -1.48222,1.890657 -1.45229,2.010952 0.22977,0.923737 1.06365,-0.6875 0.86444,-0.26864 -0.4427,0.9308 -1.30715,1.19944 -2.80535,1.915829 -3.32936,1.591976 -0.524,-0.323852 -2.01229,0.663538 -3.30729,2.1942 -2.33329,2.757873 -2.33141,2.766079 0.2067,0.908024 1.7009,-1.245161 1.56554,-0.924242 -0.40296,0.955359 -1.63034,1.556698 -3.39995,2.561074 -3.93249,2.231947 -1.30758,-0.808137 -8.00412,6.301044 -8.38597,8.902727 -0.16765,1.142277 -2.15611,3.811187 -4.41881,5.930917 l -4.11401,3.85405 3.72149,-4.375 3.72149,-4.375 -4.00341,3.61476 c -2.20188,1.98811 -3.96339,3.95686 -3.91448,4.375 0.28962,2.47549 -0.37713,3.9277 -1.48808,3.2411 -0.70453,-0.43543 -1.20042,-0.328 -1.10198,0.23873 0.44346,2.55279 -0.22645,4.23534 -1.39802,3.51127 -0.70453,-0.43543 -1.20042,-0.328 -1.10198,0.23873 0.44346,2.55279 -0.22645,4.23534 -1.39802,3.51127 -0.70453,-0.43543 -1.20042,-0.328 -1.10198,0.23873 0.47721,2.74706 -0.25216,4.2252 -1.67955,3.40378 -0.85937,-0.49455 -1.19362,-0.487 -0.74277,0.0168 0.45083,0.50378 -3.39639,9.73459 -8.5494,20.512909 -5.15303,10.77832 -10.6905,23.087831 -12.30552,27.354461 -3.4739,9.17757 -5.57931,28.72271 -5.58553,51.85232 -0.004,13.71704 0.5923,18.44587 4.41118,35 4.70688,20.40338 12.36367,47.00989 15.08513,52.41919 0.90734,1.80345 1.25026,3.72176 9.57014,14.86895 8.31987,11.14719 8.98978,12.82973 8.54632,15.38253 -0.0985,0.56672 0.29424,0.73793 0.87263,0.38047 0.57838,-0.35746 2.09922,1.1476 3.37962,3.34459 1.2804,2.19698 3.47576,5.01127 4.87858,6.25399 3.80358,3.36943 13.83371,8.13055 19.17355,9.10132 2.58696,0.4703 7.38718,2.20006 10.66715,3.84393 5.09263,2.55232 6.07018,2.71103 6.69348,1.08673 0.40144,-1.04615 1.32038,-1.53716 2.04205,-1.09113 0.72169,0.44602 0.96202,0.24441 0.53407,-0.44803 -1.92789,-3.1194 2.61276,-5.35597 15.18241,-7.42161 l 30.67564,6.75572 45.7867,3.61001 c 17.49707,-2.56666 22.02213,-4.62315 27.55277,-6.46503 9.697,-3.2294 10.44388,-3.29554 20.9375,-1.85422 15.87875,2.18097 35.1348,5.91699 51.5068,9.99322 7.90625,1.96848 21.125,4.22182 29.375,5.00743 8.25,0.78561 19.79023,2.4846 25.64495,3.77553 7.98984,1.76172 13.44599,2.17616 21.875,1.66155 6.57854,-0.40162 12.52443,-0.14934 14.35505,0.60905 1.71875,0.71207 3.96875,0.98159 5,0.59894 1.03125,-0.38265 2.55339,-0.72247 3.38251,-0.75517 z m 27.86749,-17.61473 c 0,-0.25956 0.98437,-1.24394 2.1875,-2.1875 1.98257,-1.55484 2.02679,-1.51063 0.47195,0.47195 -1.63296,2.08219 -2.65945,2.74435 -2.65945,1.71555 z m -350.86758,-57.4207 c -10.71573,-9.08106 -17.16288,-18.1333 -27.31872,-38.35735 -6.81021,-13.56168 -12.99912,-38.7947 -13.02999,-53.125 -0.0361,-16.74151 6.36685,-36.51488 21.05984,-65.036711 13.34936,-25.913619 23.86281,-39.191009 42.04539,-53.098953 9.76037,-7.465752 13.47172,-9.417033 27.12037,-14.258805 8.69692,-3.085171 19.69604,-7.565086 24.4425,-9.9553664 6.95582,-3.502891 7.99435,-0.7012608 20.04338,-2.3462258 14.37337,-1.962288 16.52357,-3.9646291 30.61708,-1.5537931 15.26502,2.611234 25.50299,4.0670429 24.10643,7.7064193 -0.3808,0.992356 -0.14096,1.458916 0.53516,1.041049 0.67388,-0.416477 3.3393,0.938246 5.92318,3.010496 6.52791,5.235329 19.12156,8.030795 31.50413,6.993105 5.1941,-0.435278 17.31045,-2.217472 26.9252,-3.960431 20.32919,-3.685265 28.05315,-3.489227 62.72062,1.591893 28.1572,4.126929 39.26088,8.298517 51.83571,19.474363 7.32339,6.50865 9.85715,9.84633 14.51465,19.11998 7.73994,15.41114 20.92295,22.51751 27.9002,34.372598 l 6.26822,10.650382 5.5418,17.5 c 7.90439,24.96065 9.29249,40.95587 5.70842,65.77852 -2.33874,16.19768 -3.35284,19.794 -10.27442,36.43652 l -7.67955,18.46502 -12.2858,11.3275 -12.28579,11.32749 -15.34772,4.31534 c -8.44123,2.37344 -27.5633,7.38867 -42.49345,11.14497 L 615.79781,287.5 591.69355,287.49 c -34.91565,-0.0139 -38.0442,-1.1684 -59.75842,-22.05332 -5.85979,-5.636 -12.04729,-10.56539 -13.75,-10.95419 -5.95731,-1.36031 -10.27115,-1.86658 -9.52205,-1.11749 0.41553,0.41554 -2.1424,2.91766 -5.6843,5.56026 -4.33251,3.23249 -12.63927,8.93405 -23.43779,17.6579 -10.79851,8.72385 -29.12741,8.95255 -65.038,-3.45346 -35.91059,-12.40601 -44.65775,-18.31185 -59.65628,-31.02235 z m 122.91383,28.50179 c 12.80307,-8.37627 16.70135,-10.89039 23.32383,-15.83648 l 8.49507,-6.34466 6.99607,1.40501 c 6.32473,1.27019 8.0285,2.39803 17.75493,11.75319 21.5141,20.69291 25.26115,22.14006 57.36311,22.15425 l 21.60426,0.01 27.14574,-6.82964 c 14.93015,-3.7563 34.04106,-8.76841 42.46868,-11.13805 l 15.32293,-4.30841 11.69722,-10.73726 11.69721,-10.73728 7.66534,-18.43718 c 6.80212,-16.36092 7.94448,-20.36264 10.14412,-35.53518 3.38271,-23.3331 2.11985,-37.24546 -5.59632,-61.652 l -5.53267,-17.5 -6.26822,-11.660535 C 712.23403,85.600175 701.90161,77.29196 694.12875,61.85594 689.54676,52.75662 686.90521,49.24421 680.21114,43.34999 668.25736,32.824519 656.61111,28.541564 629.04128,24.532066 595.07167,19.591847 590.02,19.455546 571.33929,22.975172 c -35.19899,6.631831 -52.44006,5.464746 -65.24839,-4.416799 -3.64463,-2.811818 -6.62661,-5.471184 -6.62661,-5.909702 0,-2.086019 -8.96256,-2.265823 -21.21819,-4.3685533 -12.46601,-2.138827 -15.4099,-0.1492929 -27.98798,1.5910201 -10.54485,1.4589932 -11.92163,-1.2051272 -18.61784,2.1670352 -4.73227,2.383126 -15.71976,6.857187 -24.41668,9.942358 -13.68875,4.855998 -17.32839,6.773373 -27.09843,14.275595 C 362.31055,49.9356 352.62776,62.23182 339.30493,88.093939 325.58073,114.73516 318.20924,136.6257 318.248,150.625 c 0.0344,12.40494 6.89347,38.41806 13.66415,51.82111 11.72629,23.21305 14.7974,27.14796 32.85354,42.09426 7.73719,6.4046 16.66924,12.25645 60.65664,26.63143 43.98739,14.37498 42.06053,5.79331 52.33821,-0.56266 z m 24.20375,-50.0523 c -3.78125,-5.18788 -9.50248,-11.34014 -12.71383,-13.67169 -8.38028,-6.08441 -14.16677,-18.28565 -12.97413,-27.357 1.0678,-8.1218 7.70025,-20.10808 14.69297,-26.55336 8.35478,-7.70073 16.06133,-10.86083 28.01655,-11.48832 9.48655,-0.49791 10.89898,-0.23881 18.96512,3.47912 4.79337,2.2094 9.84913,5.55081 11.23503,7.42535 3.7891,5.12502 11.52829,20.97496 11.52829,23.61005 0,1.27237 -1.6443,8.17703 -3.65399,15.34371 -3.42432,12.21129 -4.03322,13.36692 -9.6875,18.38594 -8.45645,7.50635 -14.90805,11.06288 -23.05376,12.70872 -4.53918,0.91714 -8.0399,2.50381 -9.90539,4.48954 -1.58682,1.6891 -3.49022,3.0687 -4.22975,3.06577 -0.73954,-0.002 -4.43836,-4.24996 -8.21961,-9.43783 z m 11.193,1.38683 c 0.82451,-0.99347 4.69026,-2.45126 8.59055,-3.23952 7.96676,-1.61013 14.53308,-5.15313 22.50435,-12.1427 4.92939,-4.3223 5.73584,-5.89665 9.02826,-17.6247 l 3.61537,-12.87844 -4.93223,-9.59165 c -6.58065,-12.79733 -7.06007,-13.30752 -16.77899,-17.85555 -7.45912,-3.49055 -9.31743,-3.86532 -16.36225,-3.29984 -14.41185,1.15685 -26.17096,9.09027 -33.62207,22.6835 -6.18346,11.28066 -6.44538,14.53643 -1.93043,23.99665 2.73495,5.73058 5.27275,8.97915 9.05934,11.59664 2.89305,1.99983 8.05798,7.35438 11.47761,11.899 3.41964,4.54462 6.58514,8.26294 7.03445,8.26294 0.44932,0 1.49153,-0.81284 2.31604,-1.80632 z m -1.8191,-20.18155 -3.50114,-8.23787 2.06764,-9.57463 C 513.22098,168.59291 514.45214,165 516.39804,165 c 2.35854,0 2.34586,0.15351 -1.23336,14.93529 l -3.04961,12.59456 3.04961,6.89571 c 3.4509,7.80309 3.80789,10.57444 1.36214,10.57444 -0.92812,0 -3.26299,-3.70705 -5.18863,-8.23788 z m 0.22999,-15.7465 c -0.39903,-0.99716 -0.69523,-0.70097 -0.7552,0.75522 -0.0543,1.3177 0.24116,2.05599 0.65652,1.64062 0.41536,-0.41537 0.45977,-1.4935 0.0986,-2.39584 z m 84.65056,13.03769 C 585.1812,195.0871 575.82221,186.2984 566.56961,171.21086 559.77055,160.12414 557.8257,155.0179 555.77785,142.87683 553.79469,131.11932 555.50939,122.49794 562.31669,110 c 10.502,-19.281261 16.00895,-23.659301 36.31285,-28.868841 8.84286,-2.26888 11.29752,-2.43998 18.33475,-1.27798 13.78871,2.27681 20.65915,5.277 29.94355,13.07581 13.51107,11.349161 19.35188,22.331071 22.60616,42.504221 1.63728,10.14942 0.58693,21.67087 -3.09429,33.94179 -2.81597,9.38675 -14.03761,22.2471 -23.64342,27.0961 -7.15875,3.61373 -8.73466,3.90158 -23.92526,4.36998 -13.49523,0.41612 -17.34553,0.112 -22.63229,-1.78777 z m 44.08936,-6.34826 c 9.27903,-4.68404 19.56427,-16.5785 22.33545,-25.83005 3.4766,-11.60655 4.49186,-21.51765 3.05039,-29.77844 -1.96354,-11.25261 -5.71804,-21.93695 -9.94969,-28.31419 -5.68576,-8.56867 -19.4438,-19.644991 -27.24476,-21.934261 -13.97301,-4.10047 -17.80969,-4.34296 -27.99495,-1.76929 -19.42142,4.90753 -24.28015,8.77783 -34.42422,27.421181 -6.82781,12.54851 -8.17518,19.40985 -6.0139,30.625 2.18827,11.35527 3.39306,14.35478 10.29259,25.625 9.10509,14.87295 17.35307,22.59631 28.35973,26.5559 5.19652,1.86942 8.92782,2.18822 20.24691,1.72989 12.33018,-0.49927 14.70829,-0.98183 21.34245,-4.33074 z m -38.96881,-7.26256 c -2.0625,-0.31638 -8.58412,-2.84694 -14.4925,-5.62348 l -10.74251,-5.04825 -3.4002,-8.32289 c -8.74248,-21.39952 -8.80897,-29.4348 -0.38474,-46.4956 l 5.26995,-10.67273 12.67594,-7.16674 c 12.50605,-7.070691 12.77372,-7.155251 19.97274,-6.309151 9.37658,1.10204 23.9703,8.810081 29.21308,15.429641 9.91235,12.51536 13.78199,30.72192 9.59046,45.12294 -2.27236,7.80725 -11.16757,19.48997 -19.23971,25.26892 -4.65777,3.33458 -6.44417,3.82154 -15,4.08899 -5.34187,0.16697 -11.40001,0.0448 -13.46251,-0.27165 z m 26.10296,-6.41907 c 7.95159,-5.69081 16.84135,-17.4096 19.10402,-25.18356 3.64496,-12.52315 -0.0799,-28.09252 -9.59522,-40.10657 -4.96497,-6.26879 -20.57628,-14.769201 -27.81205,-15.143751 -4.45217,-0.23047 -7.33631,0.85433 -17.19943,6.469201 l -11.85028,6.7461 -5.20697,10.66007 c -8.0664,16.51413 -8.03122,21.01554 0.32428,41.48296 l 3.39768,8.32289 10.74251,5.04825 c 12.0876,5.68035 15.14081,6.37151 25.59546,5.79414 5.7371,-0.31685 8.48405,-1.21559 12.5,-4.08973 z m -24.78209,-46.80156 c -1.07022,-1.52796 -1.94587,-5.05906 -1.94587,-7.84686 0,-7.56059 2.70389,-10.625 9.375,-10.625 6.67111,0 9.375,3.06441 9.375,10.625 0,7.56059 -2.70389,10.625 -9.375,10.625 -4.2492,0 -5.92117,-0.62524 -7.42913,-2.77814 z m 12.17248,-3.71296 c 2.84156,-3.80595 2.03671,-7.69444 -2.16203,-10.44556 -3.63048,-2.37879 -6.33303,-1.33587 -8.19655,3.16307 -1.64312,3.96683 -0.33796,7.73089 3.44306,9.92975 2.85448,1.66004 4.03787,1.20704 6.91552,-2.64726 z m -187.75209,55.14476 c -3.7173,-0.65427 -10.67506,-3.29087 -15.4617,-5.85912 -19.6538,-10.54515 -24.39266,-18.4964 -25.5598,-42.88635 -0.56376,-11.78116 -0.28357,-15.72606 1.50926,-21.25 3.7943,-11.69066 9.72915,-21.476581 18.14598,-29.920741 6.70144,-6.723209 9.98657,-8.914519 18.75,-12.506919 9.81097,-4.02183 11.58267,-4.34694 23.125,-4.24352 11.37641,0.102 13.18277,0.4589 20.09597,3.97119 5.71455,2.90331 9.28619,5.97165 14.41997,12.387989 8.28285,10.35212 10.67192,15.40024 12.4855,26.381871 1.6894,10.22973 -1.14779,31.2006 -5.34142,39.48073 -5.42538,10.71215 -14.08317,19.9438 -24.05466,25.64905 -15.78044,9.02887 -24.87084,11.12671 -38.1141,8.79582 z m 21.42354,-5.5164 c 8.37886,-2.83655 23.26481,-12.16478 27.1728,-17.02775 l 5.96673,-9.40117 -9.97359,9.82857 c -3.67933,3.62583 -10.26754,6.83498 -13.24587,8.85077 -5.12667,3.46983 -5.95895,3.63578 -15.625,3.11546 -18.87791,-1.0162 -30.20428,-8.63258 -37.92876,-25.50504 -3.19131,-6.97075 -3.22065,-7.29562 -1.86302,-20.63021 1.5201,-14.93036 4.29247,-22.05509 11.66248,-29.971351 3.35968,-3.6087 6.12809,-5.0046 14.25455,-7.1875 12.02622,-3.23045 20.34255,-3.41453 31.18768,-0.69031 6.98632,1.75491 8.65346,2.77395 12.7569,7.79768 2.59616,3.178431 5.68546,6.750791 6.86511,7.938581 5.12648,5.1619 8.47666,14.4111 8.60834,23.76596 l -1.30042,12.67548 3.13971,-13.57143 C 493.99326,111.64965 489.64,99.462589 478.03049,85.181849 470.06531,75.38398 460.75925,70.97595 447.61934,70.77693 c -8.79148,-0.13317 -11.3421,0.38662 -20.65505,4.20932 -8.55101,3.50994 -12.08899,5.831739 -18.125,11.894509 -7.8528,7.88763 -13.80936,17.841631 -17.52235,29.281551 -2.94679,9.07924 -1.95895,27.571 2.02965,37.99385 3.22446,8.42605 8.0198,13.01159 20.79827,19.88838 12.87998,6.93141 22.56599,8.08516 34.35923,4.09272 z m 7.63085,-10.45994 c 2.8624,-1.96496 8.18901,-5.41883 11.83692,-7.67526 15.786,-9.7645 22.14635,-28.89445 14.57474,-43.83631 -1.74224,-3.43812 -4.13286,-7.22296 -5.3125,-8.41076 -1.17965,-1.18779 -4.26895,-4.76015 -6.86511,-7.938581 -4.10344,-5.02374 -5.77058,-6.04277 -12.7569,-7.79768 -10.53354,-2.64594 -14.11946,-2.55142 -26.18768,0.69031 -8.12646,2.1829 -10.89487,3.5788 -14.25455,7.1875 -6.88135,7.391381 -10.02535,14.978071 -11.46175,27.657981 -1.24126,10.95728 -1.16157,11.77543 1.77049,18.17992 5.98981,13.08346 13.21143,19.5934 26.36069,23.76287 8.87885,2.81539 16.44267,2.19795 22.29565,-1.81999 z m -13.47478,-41.70546 c -1.07022,-1.52796 -1.94587,-5.05906 -1.94587,-7.84686 0,-7.56059 2.70389,-10.625 9.375,-10.625 6.67111,0 9.375,3.06441 9.375,10.625 0,7.56059 -2.70389,10.625 -9.375,10.625 -4.2492,0 -5.92117,-0.62524 -7.42913,-2.77814 z m 13.15408,-4.90862 c 1.72905,-3.23075 -0.0321,-7.77003 -3.79638,-9.78456 -2.13333,-1.14173 -3.10013,-0.84576 -5.68693,1.74105 -1.71415,1.71414 -3.11664,4.01152 -3.11664,5.10527 0,1.09375 1.40249,3.39112 3.11664,5.10527 2.5387,2.5387 3.57646,2.87055 5.59635,1.78954 1.36385,-0.72991 3.11297,-2.51037 3.88696,-3.95657 z M 488.176,140.625 c -325.45067,419.58333 -162.72533,209.79167 0,0 z m 60.03829,137.69374 c 0,-0.2372 -1.26563,-1.50283 -2.8125,-2.8125 l -2.8125,-2.38124 2.38124,2.8125 c 2.23777,2.64305 3.24376,3.38155 3.24376,2.38124 z m -7.5,-6.16477 c 0,-0.19031 -4.07813,-4.26843 -9.0625,-9.0625 l -9.0625,-8.71647 8.71648,9.0625 c 8.09586,8.41725 9.40852,9.63336 9.40852,8.71647 z M 706.33929,258.75 c 2.6853,-2.75 4.60112,-5 4.25737,-5 -0.34374,0 -2.82207,2.25 -5.50737,5 -2.6853,2.75 -4.60112,5 -4.25737,5 0.34374,0 2.82207,-2.25 5.50737,-5 z m 18.125,-17.13526 c 0,-0.9386 -1.12229,0.0538 -6.30224,5.57276 l -5.57276,5.9375 5.9375,-5.57276 c 3.26562,-3.06502 5.9375,-5.73689 5.9375,-5.9375 z m -358.75,7.954 c 0,-0.2372 -1.26563,-1.50283 -2.8125,-2.8125 l -2.8125,-2.38124 2.38124,2.8125 c 2.23777,2.64305 3.24376,3.38155 3.24376,2.38124 z m -7.5,-6.22585 c 0,-0.2239 -1.54688,-1.77078 -3.4375,-3.4375 l -3.4375,-3.03039 3.03039,3.4375 c 2.83236,3.21286 3.84461,4.01074 3.84461,3.03039 z m -8.75,-7.52415 c 0,-0.2372 -1.26563,-1.50283 -2.8125,-2.8125 l -2.8125,-2.38124 2.38124,2.8125 c 2.23777,2.64305 3.24376,3.38155 3.24376,2.38124 z m 381.25,-131.16477 c 0,-0.19031 -2.05782,-6.793811 -0.67509,-4.809206 1.38274,1.984606 0.67509,5.726096 0.67509,4.809206 z M 351.33929,61.25 c 1.24436,-1.375 1.98122,-2.5 1.63747,-2.5 -0.34375,0 -1.64311,1.125 -2.88747,2.5 -1.24436,1.375 -1.98123,2.5 -1.63748,2.5 0.34375,0 1.64312,-1.125 2.88748,-2.5 z m 7.57864,-9.0625 3.67136,-4.0625 -4.0625,3.67136 c -3.78682,3.42223 -4.63706,4.45364 -3.67136,4.45364 0.21512,0 2.04325,-1.82812 4.0625,-4.0625 z m 333.04636,-2.57864 c 0,-0.21512 -1.82813,-2.04325 -4.0625,-4.0625 l -4.0625,-3.67136 3.67136,4.0625 c 3.42223,3.78682 4.45364,4.63707 4.45364,3.67136 z m -325,-6.48386 c 1.61469,-1.71875 2.65454,-3.125 2.31079,-3.125 -0.34375,0 -1.9461,1.40625 -3.56079,3.125 -1.61469,1.71875 -2.65454,3.125 -2.31079,3.125 0.34375,0 1.9461,-1.40625 3.56079,-3.125 z m 315,-2.26614 c 0,-0.21512 -1.82813,-2.043246 -4.0625,-4.062496 l -4.0625,-3.671364 3.67136,4.0625 c 3.42223,3.78682 4.45364,4.63707 4.45364,3.67136 z M 379.62374,32.8125 c 1.55484,-1.98257 1.51063,-2.026782 -0.47195,-0.471944 -1.20313,0.943555 -2.1875,1.92793 -2.1875,2.1875 0,1.028793 1.02649,0.366629 2.65945,-1.715556 z M 509.46429,17.028056 c 0,-0.25957 -0.98438,-1.243945 -2.1875,-2.1875 -1.98258,-1.554838 -2.02679,-1.510626 -0.47195,0.471944 1.63296,2.082185 2.65945,2.744349 2.65945,1.715556 z M 700.06584,34.6875 687.58929,21.875 l 12.8125,12.476548 c 7.04687,6.862102 12.8125,12.627722 12.8125,12.812502 0,0.90421 -1.56018,-0.57624 -13.14845,-12.47655 z m -353.10155,2.421364 c 0,-0.215125 1.82812,-2.04325 4.0625,-4.0625 l 4.0625,-3.671364 -3.67136,4.0625 c -3.42223,3.786819 -4.45364,4.637065 -4.45364,3.671364 z"
     id="path3346"
     inkscape:connector-curvature="0"
     sodipodi:nodetypes="cssscsssssssccccsssssssscscsssscscccssscsssssssssssssssssscssscsssscssscscssssscsccccscccsssssssssssssssscccssssssssssssssssscsssssssssscsssscsssssscsccsssssssscsssssssscssscccssscssscscscsccscscscscsssssssssssscsscssssscsscscsscssssscssccsscsssccssccssssscsscssssssscsssssssssssccssscsssscsssssssssssssscssscsssssssssscssssssssssccssscsscssscccscsssssscccscsscscssccsssssccsscccscccscsscccscssccsssssssssssssssscssscsscsssssssssscccscscscscsssscssccsssssscscccsssssscsccsssssssssssssssssssssscssscccssccsscsccscscssccsscccsssccsssssssssssssssccsssssssssssscscssscssssssssccscssscsssccsccsssssssssssssssssssssssscscsscsssssscssssscsscssssssssssssssssssssssssssssscssssssssssscsssssssssssssssssssssssssssscsssssccsscsssscssssssssscsssscsssscsssscssscssssssscssssscssssssssscssssssssssscssssscss" />
</svg>
