<?xml version="1.0" encoding="UTF-8" standalone="no"?>
<svg
   xmlns:dc="http://purl.org/dc/elements/1.1/"
   xmlns:cc="http://creativecommons.org/ns#"
   xmlns:rdf="http://www.w3.org/1999/02/22-rdf-syntax-ns#"
   xmlns:svg="http://www.w3.org/2000/svg"
   xmlns="http://www.w3.org/2000/svg"
   version="1.1">
      <path
         id="i0"
         transform="translate(194.8627,508.47708)"
         d="m 39.03125,35.433594 a 0.8995474,0.8995474 0 0 0 -0.900391,0.90039 l 0,30.390625 A 0.8995474,0.8995474 0 0 0 39.03125,67.625 l 3.613281,0 a 0.8995474,0.8995474 0 0 0 0.900391,-0.900391 l 0,-8.570312 9.589844,9.21875 A 0.8995474,0.8995474 0 0 0 53.757812,67.625 l 4.6875,0 a 0.8995474,0.8995474 0 0 0 0.623047,-1.548828 L 47.681641,55.113281 58.552734,45.523438 a 0.8995474,0.8995474 0 0 0 -0.595703,-1.574219 l -4.589843,0 a 0.8995474,0.8995474 0 0 0 -0.59375,0.224609 l -9.228516,8.119141 0,-15.958985 a 0.8995474,0.8995474 0 0 0 -0.900391,-0.90039 l -3.613281,0 z m 55.996094,0 a 0.8995474,0.8995474 0 0 0 -0.900391,0.90039 l 0,4.550782 a 0.8995474,0.8995474 0 0 0 0.900391,0.90039 l 3.59375,0 a 0.8995474,0.8995474 0 0 0 0.90039,-0.90039 l 0,-4.550782 a 0.8995474,0.8995474 0 0 0 -0.90039,-0.90039 l -3.59375,0 z m 55.800776,0 a 0.8995474,0.8995474 0 0 0 -0.90039,0.90039 l 0,30.390625 a 0.8995474,0.8995474 0 0 0 0.90039,0.900391 l 3.61329,0 a 0.8995474,0.8995474 0 0 0 0.90039,-0.900391 l 0,-8.570312 9.58984,9.21875 a 0.8995474,0.8995474 0 0 0 0.62305,0.251953 l 4.6875,0 a 0.8995474,0.8995474 0 0 0 0.62304,-1.548828 l -11.38671,-10.962891 10.87109,-9.589843 a 0.8995474,0.8995474 0 0 0 -0.5957,-1.574219 l -4.58985,0 a 0.8995474,0.8995474 0 0 0 -0.59375,0.224609 l -9.22851,8.119141 0,-15.958985 a 0.8995474,0.8995474 0 0 0 -0.90039,-0.90039 l -3.61329,0 z m 47.2461,0 a 0.8995474,0.8995474 0 0 0 -0.90039,0.90039 l 0,30.390625 a 0.8995474,0.8995474 0 0 0 0.90039,0.900391 l 3.59375,0 a 0.8995474,0.8995474 0 0 0 0.90039,-0.900391 l 0,-30.390625 a 0.8995474,0.8995474 0 0 0 -0.90039,-0.90039 l -3.59375,0 z m -64.35547,7.96875 c -2.48818,0 -5.21816,0.650793 -8.20117,1.908203 a 0.8995474,0.8995474 0 0 0 -0.55078,0.828125 l 0,4.003906 a 0.8995474,0.8995474 0 0 0 0.90039,0.900391 l 0.19531,0 a 0.8995474,0.8995474 0 0 0 0.59961,-0.228516 c 0.71613,-0.63901 1.81833,-1.237192 3.31641,-1.732422 1.4126,-0.45787 2.67512,-0.675781 3.77929,-0.675781 2.12814,0 3.69838,0.557552 4.88086,1.638672 1.11451,1.01844 1.66279,2.503498 1.82813,4.392578 l -15.0293,0 a 0.8995474,0.8995474 0 0 0 -0.90039,0.900391 l 0,1.992187 c 0,3.22029 0.80436,5.86284 2.49023,7.78125 a 0.8995474,0.8995474 0 0 0 0.002,0.002 c 1.78755,2.02009 4.40696,3.019531 7.60742,3.019531 3.54597,0 6.4901,-1.238868 8.57226,-3.673828 1.96594,-2.29124 2.9336,-5.296667 2.9336,-8.867187 0,-3.7869 -1.09225,-6.8604 -3.32227,-9.005859 -2.21203,-2.140671 -5.30756,-3.183594 -9.10156,-3.183594 z m 47.38281,0.01953 c -1.23528,0 -2.49954,0.137403 -3.78906,0.408203 -1.29292,0.25859 -2.61884,0.651501 -3.97656,1.175781 a 0.8995474,0.8995474 0 0 0 -0.57617,0.839844 l 0,3.320313 a 0.8995474,0.8995474 0 0 0 1.33203,0.789062 c 1.02912,-0.56357 2.0965,-0.984945 3.20703,-1.265625 1.11204,-0.28107 2.25347,-0.419922 3.43164,-0.419922 1.82716,0 3.115,0.416147 3.99023,1.154297 a 0.8995474,0.8995474 0 0 0 0.01,0.0078 c 0.75262,0.61823 1.1038,1.468474 1.21289,2.583984 l -4.04102,0 c -3.38289,0 -6.04474,0.636714 -7.92578,2.058594 a 0.8995474,0.8995474 0 0 0 -0.002,0.002 c -1.86696,1.42245 -2.81641,3.62044 -2.81641,6.28125 0,2.29631 0.75448,4.270721 2.25,5.707031 a 0.8995474,0.8995474 0 0 0 0.006,0.0059 c 1.51188,1.42293 3.56183,2.121094 5.96875,2.121094 1.87666,0 3.51996,-0.332209 4.90039,-1.037109 a 0.8995474,0.8995474 0 0 0 0.01,-0.0039 c 0.63764,-0.33239 1.21376,-0.768652 1.75,-1.263672 l 0,0.83789 a 0.8995474,0.8995474 0 0 0 0.90039,0.900391 l 3.59375,0 a 0.8995474,0.8995474 0 0 0 0.90039,-0.900391 l 0,-12.480468 c 0,-3.47387 -0.82145,-6.221112 -2.59375,-8.082032 -1.77161,-1.86019 -4.4207,-2.740234 -7.74023,-2.740234 l -0.002,0 z M 60.203125,43.949219 a 0.8995474,0.8995474 0 0 0 -0.871094,1.128906 l 5.722657,21.875 A 0.8995474,0.8995474 0 0 0 65.925781,67.625 l 4.238281,0 a 0.8995474,0.8995474 0 0 0 0.869141,-0.671875 l 3.855469,-14.625 3.839844,14.625 a 0.8995474,0.8995474 0 0 0 0.86914,0.671875 l 4.238282,0 a 0.8995474,0.8995474 0 0 0 0.871093,-0.671875 l 5.722657,-21.875 a 0.8995474,0.8995474 0 0 0 -0.871094,-1.128906 l -3.59375,0 a 0.8995474,0.8995474 0 0 0 -0.869141,0.671875 L 81.490234,58.380859 77.869141,44.621094 A 0.8995474,0.8995474 0 0 0 77,43.949219 l -4.238281,0 a 0.8995474,0.8995474 0 0 0 -0.869141,0.671875 L 68.287109,58.380859 64.666016,44.621094 a 0.8995474,0.8995474 0 0 0 -0.869141,-0.671875 l -3.59375,0 z m 34.824219,0 a 0.8995474,0.8995474 0 0 0 -0.900391,0.90039 l 0,21.875 A 0.8995474,0.8995474 0 0 0 95.027344,67.625 l 3.59375,0 a 0.8995474,0.8995474 0 0 0 0.90039,-0.900391 l 0,-21.875 a 0.8995474,0.8995474 0 0 0 -0.90039,-0.90039 l -3.59375,0 z m 9.531246,0 a 0.8995474,0.8995474 0 0 0 -0.90039,0.90039 l 0,2.871094 a 0.8995474,0.8995474 0 0 0 0.90039,0.900391 l 11.06836,0 -12.23828,14.236328 a 0.8995474,0.8995474 0 0 0 -0.21875,0.585937 l 0,3.28125 a 0.8995474,0.8995474 0 0 0 0.90039,0.900391 l 17.5586,0 a 0.8995474,0.8995474 0 0 0 0.90039,-0.900391 l 0,-2.871093 a 0.8995474,0.8995474 0 0 0 -0.90039,-0.900391 l -11.55664,0 12.23828,-14.236328 a 0.8995474,0.8995474 0 0 0 0.21875,-0.585938 l 0,-3.28125 a 0.8995474,0.8995474 0 0 0 -0.90039,-0.90039 l -17.07032,0 z m 78.8086,12.679687 2.66015,0 c -0.0186,2.13252 -0.55181,3.748898 -1.58593,4.960938 a 0.8995474,0.8995474 0 0 0 -0.002,0 c -1.03831,1.21888 -2.31905,1.792959 -4.09961,1.792968 -1.28926,0 -2.18458,-0.313628 -2.83984,-0.886718 -0.64133,-0.58463 -0.94727,-1.297077 -0.94727,-2.373047 0,-1.39194 0.39137,-2.12276 1.23829,-2.625 0.82641,-0.49008 2.74109,-0.869141 5.57617,-0.869141 z m -53.33008,2.421875 10.33008,0 c -0.26993,1.14557 -0.72311,2.117533 -1.5293,2.845703 -1.04076,0.94004 -2.31999,1.408204 -4.00586,1.408204 -1.77008,0 -2.93343,-0.441739 -3.69726,-1.236329 -0.61763,-0.6425 -0.95659,-1.688888 -1.09766,-3.017578 z"
         style="font-style:normal;font-weight:normal;font-size:40px;line-height:125%;font-family:sans-serif;letter-spacing:0px;word-spacing:0px;fill:#000000;fill-opacity:1;stroke:none;stroke-width:1px;stroke-linecap:butt;stroke-linejoin:miter;stroke-opacity:1" />

        <path
           id="path4485"
           d="m 233.89362,544.81006 3.61328,0 0,17.94922 10.72265,-9.4336 4.58985,0 -11.60157,10.23438 12.08985,11.64062 -4.6875,0 -11.11328,-10.68359 0,10.68359 -3.61328,0 0,-30.39062 z" />
        <path
           id="path4487"
           d="m 255.06549,553.32568 3.59375,0 4.49219,17.07032 4.47265,-17.07032 4.23829,0 4.49218,17.07032 4.47266,-17.07032 3.59375,0 -5.72266,21.875 -4.23828,0 -4.70703,-17.92968 -4.72656,17.92968 -4.23828,0 -5.72266,-21.875 z" />
        <path
           id="path4489"
           d="m 289.88971,553.32568 3.59375,0 0,21.875 -3.59375,0 0,-21.875 z m 0,-8.51562 3.59375,0 0,4.55078 -3.59375,0 0,-4.55078 z" />
        <path
           id="path4491"
           d="m 299.42096,553.32568 17.07031,0 0,3.28125 -13.51562,15.72266 13.51562,0 0,2.87109 -17.55859,0 0,-3.28125 13.51562,-15.72265 -13.02734,0 0,-2.8711 z" />
        <path
           id="path4493"
           d="m 340.10455,564.06787 q 0,5.11719 -2.71484,8.28125 -2.87109,3.35938 -7.89063,3.35938 -4.53125,0 -6.93359,-2.71485 -2.26562,-2.57812 -2.26562,-7.1875 l 0,-1.99219 16.07421,0 q 0,-3.88671 -2.26562,-5.95703 -2.05078,-1.875 -5.48828,-1.875 -1.83594,0 -4.0625,0.72266 -2.36328,0.78125 -3.63281,1.91406 l -0.19532,0 0,-4.0039 q 4.35547,-1.83594 7.85157,-1.83594 5.44921,0 8.47656,2.92969 3.04687,2.92968 3.04687,8.35937 z m -3.73047,2.55859 -12.5,0 q 0.0391,6.05469 5.82032,6.05469 2.79297,0 4.60937,-1.64062 1.81641,-1.64063 2.07031,-4.41407 z" />
        <path
           id="path4495"
           d="m 345.69049,544.81006 3.61328,0 0,17.94922 10.72266,-9.4336 4.58984,0 -11.60156,10.23438 12.08984,11.64062 -4.6875,0 -11.11328,-10.68359 0,10.68359 -3.61328,0 0,-30.39062 z" />
        <path
           id="path4497"
           d="m 378.22955,564.20459 q -4.35547,0 -6.03515,0.99609 -1.67969,0.9961 -1.67969,3.39844 0,1.91406 1.25,3.04688 1.26953,1.11328 3.4375,1.11328 2.98828,0 4.78516,-2.10938 1.8164,-2.1289 1.8164,-5.64453 l 0,-0.80078 -3.57422,0 z m 7.16797,-1.48438 0,12.48047 -3.59375,0 0,-3.32031 q -1.23047,1.99219 -3.0664,2.94922 -1.83594,0.9375 -4.49219,0.9375 -3.35938,0 -5.35156,-1.875 -1.97266,-1.89453 -1.97266,-5.05859 0,-3.69141 2.46094,-5.56641 2.48047,-1.875 7.38281,-1.875 l 5.03906,0 0,-0.35156 q 0,-2.48047 -1.64062,-3.82813 -1.6211,-1.36719 -4.57032,-1.36719 -1.875,0 -3.65234,0.44922 -1.77734,0.44922 -3.41797,1.34766 l 0,-3.32031 q 1.97266,-0.76172 3.82813,-1.13282 1.85547,-0.39062 3.61328,-0.39062 4.74609,0 7.08984,2.46094 2.34375,2.46093 2.34375,7.46093 z" />
        <path
           id="path4499"
           d="m 392.93658,544.81006 3.59375,0 0,30.39062 -3.59375,0 0,-30.39062 z" />
      
      <path
         id="i1"
         transform="translate(197.56107,508.47708)"
         d="m 36.333984,35.433594 a 0.8995474,0.8995474 0 0 0 -0.90039,0.90039 l 0,30.390625 a 0.8995474,0.8995474 0 0 0 0.90039,0.900391 l 3.613282,0 a 0.8995474,0.8995474 0 0 0 0.90039,-0.900391 l 0,-8.570312 9.589844,9.21875 A 0.8995474,0.8995474 0 0 0 51.060547,67.625 l 4.6875,0 a 0.8995474,0.8995474 0 0 0 0.623047,-1.548828 L 44.984375,55.113281 55.855469,45.523438 a 0.8995474,0.8995474 0 0 0 -0.595703,-1.574219 l -4.589844,0 a 0.8995474,0.8995474 0 0 0 -0.59375,0.224609 l -9.228516,8.119141 0,-15.958985 a 0.8995474,0.8995474 0 0 0 -0.90039,-0.90039 l -3.613282,0 z m 55.996094,0 a 0.8995474,0.8995474 0 0 0 -0.90039,0.90039 l 0,4.550782 a 0.8995474,0.8995474 0 0 0 0.90039,0.90039 l 3.59375,0 a 0.8995474,0.8995474 0 0 0 0.900391,-0.90039 l 0,-4.550782 a 0.8995474,0.8995474 0 0 0 -0.900391,-0.90039 l -3.59375,0 z m 55.800782,0 a 0.8995474,0.8995474 0 0 0 -0.90039,0.90039 l 0,30.390625 a 0.8995474,0.8995474 0 0 0 0.90039,0.900391 l 3.61328,0 a 0.8995474,0.8995474 0 0 0 0.90039,-0.900391 l 0,-8.570312 9.58985,9.21875 a 0.8995474,0.8995474 0 0 0 0.62304,0.251953 l 4.6875,0 a 0.8995474,0.8995474 0 0 0 0.62305,-1.548828 l -11.38672,-10.962891 10.87109,-9.589843 a 0.8995474,0.8995474 0 0 0 -0.5957,-1.574219 l -4.58984,0 a 0.8995474,0.8995474 0 0 0 -0.59375,0.224609 l -9.22852,8.119141 0,-15.958985 a 0.8995474,0.8995474 0 0 0 -0.90039,-0.90039 l -3.61328,0 z m 47.24609,0 a 0.8995474,0.8995474 0 0 0 -0.90039,0.90039 l 0,30.390625 a 0.8995474,0.8995474 0 0 0 0.90039,0.900391 l 3.59375,0 a 0.8995474,0.8995474 0 0 0 0.90039,-0.900391 l 0,-30.390625 a 0.8995474,0.8995474 0 0 0 -0.90039,-0.90039 l -3.59375,0 z m -64.35547,7.96875 c -2.48818,0 -5.21816,0.650793 -8.20117,1.908203 a 0.8995474,0.8995474 0 0 0 -0.55078,0.828125 l 0,4.003906 a 0.8995474,0.8995474 0 0 0 0.90039,0.900391 l 0.19531,0 a 0.8995474,0.8995474 0 0 0 0.59961,-0.228516 c 0.71613,-0.63901 1.81833,-1.237192 3.31641,-1.732422 1.4126,-0.45787 2.67513,-0.675781 3.7793,-0.675781 2.12814,0 3.69838,0.557552 4.88086,1.638672 1.11451,1.01844 1.66278,2.503498 1.82812,4.392578 l -15.0293,0 a 0.8995474,0.8995474 0 0 0 -0.90039,0.900391 l 0,1.992187 c 0,3.22029 0.80437,5.86284 2.49024,7.78125 a 0.8995474,0.8995474 0 0 0 0.002,0.002 c 1.78755,2.02009 4.40696,3.019531 7.60742,3.019531 3.54597,0 6.49011,-1.238868 8.57227,-3.673828 1.96594,-2.29124 2.93359,-5.296667 2.93359,-8.867187 0,-3.7869 -1.09224,-6.8604 -3.32226,-9.005859 -2.21203,-2.140671 -5.30757,-3.183594 -9.10157,-3.183594 z m 47.38282,0.01953 c -1.23528,0 -2.49955,0.137403 -3.78907,0.408203 -1.29292,0.25859 -2.61884,0.651501 -3.97656,1.175781 a 0.8995474,0.8995474 0 0 0 -0.57617,0.839844 l 0,3.320313 a 0.8995474,0.8995474 0 0 0 1.33203,0.789062 c 1.02912,-0.56357 2.0965,-0.984945 3.20703,-1.265625 1.11204,-0.28107 2.25347,-0.419922 3.43164,-0.419922 1.82716,0 3.11501,0.416147 3.99024,1.154297 a 0.8995474,0.8995474 0 0 0 0.01,0.0078 c 0.75262,0.61823 1.1038,1.468474 1.21289,2.583984 l -4.04101,0 c -3.38289,0 -6.04474,0.636714 -7.92578,2.058594 a 0.8995474,0.8995474 0 0 0 -0.002,0.002 c -1.86696,1.42245 -2.8164,3.62044 -2.8164,6.28125 0,2.29631 0.75448,4.270721 2.25,5.707031 a 0.8995474,0.8995474 0 0 0 0.006,0.0059 c 1.51188,1.42293 3.56183,2.121094 5.96875,2.121094 1.87666,0 3.51996,-0.332209 4.90039,-1.037109 a 0.8995474,0.8995474 0 0 0 0.008,-0.0039 c 0.63764,-0.33239 1.21376,-0.768652 1.75,-1.263672 l 0,0.83789 a 0.8995474,0.8995474 0 0 0 0.90039,0.900391 l 3.59375,0 a 0.8995474,0.8995474 0 0 0 0.90039,-0.900391 l 0,-12.480468 c 0,-3.47387 -0.82145,-6.221112 -2.59375,-8.082032 -1.77161,-1.86019 -4.4207,-2.740234 -7.74023,-2.740234 z M 57.505859,43.949219 a 0.8995474,0.8995474 0 0 0 -0.871093,1.128906 l 5.722656,21.875 A 0.8995474,0.8995474 0 0 0 63.228516,67.625 l 4.238281,0 a 0.8995474,0.8995474 0 0 0 0.869141,-0.671875 l 3.855468,-14.625 3.839844,14.625 A 0.8995474,0.8995474 0 0 0 76.900391,67.625 l 4.238281,0 a 0.8995474,0.8995474 0 0 0 0.871094,-0.671875 l 5.722656,-21.875 a 0.8995474,0.8995474 0 0 0 -0.871094,-1.128906 l -3.59375,0 a 0.8995474,0.8995474 0 0 0 -0.86914,0.671875 L 78.792969,58.380859 75.171875,44.621094 a 0.8995474,0.8995474 0 0 0 -0.869141,-0.671875 l -4.238281,0 a 0.8995474,0.8995474 0 0 0 -0.869141,0.671875 L 65.589844,58.380859 61.96875,44.621094 a 0.8995474,0.8995474 0 0 0 -0.869141,-0.671875 l -3.59375,0 z m 34.824219,0 a 0.8995474,0.8995474 0 0 0 -0.90039,0.90039 l 0,21.875 a 0.8995474,0.8995474 0 0 0 0.90039,0.900391 l 3.59375,0 a 0.8995474,0.8995474 0 0 0 0.900391,-0.900391 l 0,-21.875 a 0.8995474,0.8995474 0 0 0 -0.900391,-0.90039 l -3.59375,0 z m 9.531252,0 a 0.8995474,0.8995474 0 0 0 -0.90039,0.90039 l 0,2.871094 a 0.8995474,0.8995474 0 0 0 0.90039,0.900391 l 11.06836,0 -12.23828,14.236328 a 0.8995474,0.8995474 0 0 0 -0.21875,0.585937 l 0,3.28125 a 0.8995474,0.8995474 0 0 0 0.90039,0.900391 l 17.55859,0 a 0.8995474,0.8995474 0 0 0 0.90039,-0.900391 l 0,-2.871093 a 0.8995474,0.8995474 0 0 0 -0.90039,-0.900391 l -11.55664,0 12.23828,-14.236328 a 0.8995474,0.8995474 0 0 0 0.21875,-0.585938 l 0,-3.28125 a 0.8995474,0.8995474 0 0 0 -0.90039,-0.90039 l -17.07031,0 z m 78.80859,12.679687 2.66016,0 c -0.0186,2.13252 -0.55182,3.748898 -1.58594,4.960938 a 0.8995474,0.8995474 0 0 0 -0.002,0 c -1.03831,1.21888 -2.31905,1.792959 -4.09961,1.792968 -1.28926,0 -2.18459,-0.313628 -2.83985,-0.886718 -0.64133,-0.58463 -0.94726,-1.297077 -0.94726,-2.373047 0,-1.39194 0.39136,-2.12276 1.23828,-2.625 0.82641,-0.49008 2.74109,-0.869141 5.57617,-0.869141 z m -53.33008,2.421875 10.33008,0 c -0.26993,1.14557 -0.72311,2.117533 -1.5293,2.845703 -1.04075,0.94004 -2.31998,1.408204 -4.00585,1.408204 -1.77008,0 -2.93344,-0.441739 -3.69727,-1.236329 -0.61763,-0.6425 -0.95659,-1.688888 -1.09766,-3.017578 z"
         style="font-style:normal;font-weight:normal;font-size:40px;line-height:125%;font-family:sans-serif;letter-spacing:0px;word-spacing:0px;fill:#000000;fill-opacity:1;stroke:none;stroke-width:1px;stroke-linecap:butt;stroke-linejoin:miter;stroke-opacity:1" />
        <path
           id="path4467"
           d="m 233.89362,544.81006 3.61328,0 0,17.94922 10.72265,-9.4336 4.58985,0 -11.60157,10.23438 12.08985,11.64062 -4.6875,0 -11.11328,-10.68359 0,10.68359 -3.61328,0 0,-30.39062 z" />
        <path
           id="path4469"
           d="m 255.06549,553.32568 3.59375,0 4.49219,17.07032 4.47265,-17.07032 4.23829,0 4.49218,17.07032 4.47266,-17.07032 3.59375,0 -5.72266,21.875 -4.23828,0 -4.70703,-17.92968 -4.72656,17.92968 -4.23828,0 -5.72266,-21.875 z" />
        <path
           id="path4471"
           d="m 289.88971,553.32568 3.59375,0 0,21.875 -3.59375,0 0,-21.875 z m 0,-8.51562 3.59375,0 0,4.55078 -3.59375,0 0,-4.55078 z" />
        <path
           id="path4473"
           d="m 299.42096,553.32568 17.07031,0 0,3.28125 -13.51562,15.72266 13.51562,0 0,2.87109 -17.55859,0 0,-3.28125 13.51562,-15.72265 -13.02734,0 0,-2.8711 z" />
        <path
           id="path4475"
           d="m 340.10455,564.06787 q 0,5.11719 -2.71484,8.28125 -2.87109,3.35938 -7.89063,3.35938 -4.53125,0 -6.93359,-2.71485 -2.26562,-2.57812 -2.26562,-7.1875 l 0,-1.99219 16.07421,0 q 0,-3.88671 -2.26562,-5.95703 -2.05078,-1.875 -5.48828,-1.875 -1.83594,0 -4.0625,0.72266 -2.36328,0.78125 -3.63281,1.91406 l -0.19532,0 0,-4.0039 q 4.35547,-1.83594 7.85157,-1.83594 5.44921,0 8.47656,2.92969 3.04687,2.92968 3.04687,8.35937 z m -3.73047,2.55859 -12.5,0 q 0.0391,6.05469 5.82032,6.05469 2.79297,0 4.60937,-1.64062 1.81641,-1.64063 2.07031,-4.41407 z" />
        <path
           id="path4477"
           d="m 345.69049,544.81006 3.61328,0 0,17.94922 10.72266,-9.4336 4.58984,0 -11.60156,10.23438 12.08984,11.64062 -4.6875,0 -11.11328,-10.68359 0,10.68359 -3.61328,0 0,-30.39062 z" />
        <path
           id="path4479"
           d="m 378.22955,564.20459 q -4.35547,0 -6.03515,0.99609 -1.67969,0.9961 -1.67969,3.39844 0,1.91406 1.25,3.04688 1.26953,1.11328 3.4375,1.11328 2.98828,0 4.78516,-2.10938 1.8164,-2.1289 1.8164,-5.64453 l 0,-0.80078 -3.57422,0 z m 7.16797,-1.48438 0,12.48047 -3.59375,0 0,-3.32031 q -1.23047,1.99219 -3.0664,2.94922 -1.83594,0.9375 -4.49219,0.9375 -3.35938,0 -5.35156,-1.875 -1.97266,-1.89453 -1.97266,-5.05859 0,-3.69141 2.46094,-5.56641 2.48047,-1.875 7.38281,-1.875 l 5.03906,0 0,-0.35156 q 0,-2.48047 -1.64062,-3.82813 -1.6211,-1.36719 -4.57032,-1.36719 -1.875,0 -3.65234,0.44922 -1.77734,0.44922 -3.41797,1.34766 l 0,-3.32031 q 1.97266,-0.76172 3.82813,-1.13282 1.85547,-0.39062 3.61328,-0.39062 4.74609,0 7.08984,2.46094 2.34375,2.46093 2.34375,7.46093 z" />
        <path
           id="path4481"
           d="m 392.93658,544.81006 3.59375,0 0,30.39062 -3.59375,0 0,-30.39062 z" />
</svg>
