
<svg
   xmlns:dc="http://purl.org/dc/elements/1.1/"
   xmlns:cc="http://creativecommons.org/ns#"
   xmlns:rdf="http://www.w3.org/1999/02/22-rdf-syntax-ns#"
   xmlns:svg="http://www.w3.org/2000/svg"
   xmlns="http://www.w3.org/2000/svg"
   version="1.1"
   id="svg3497"
    viewBox="30 50 170 20">
  <defs
     id="defs3499" />
  <metadata
     id="metadata3502">
    <rdf:RDF>
      <cc:Work
         rdf:about="">
        <dc:format>image/svg+xml</dc:format>
        <dc:type
           rdf:resource="http://purl.org/dc/dcmitype/StillImage" />
        <dc:title></dc:title>
      </cc:Work>
    </rdf:RDF>
  </metadata>
     <path id="i0" fill="none" stroke="#003399"  d="m 36.333984,35.433594 a 0.8995474,0.8995474 0 0 0 -0.90039,0.90039 l 0,30.390625 a 0.8995474,0.8995474 0 0 0 0.90039,0.900391 l 3.613282,0 a 0.8995474,0.8995474 0 0 0 0.90039,-0.900391 l 0,-8.570312 9.589844,9.21875 A 0.8995474,0.8995474 0 0 0 51.060547,67.625 l 4.6875,0 a 0.8995474,0.8995474 0 0 0 0.623047,-1.548828 L 44.984375,55.113281 55.855469,45.523438 a 0.8995474,0.8995474 0 0 0 -0.595703,-1.574219 l -4.589844,0 a 0.8995474,0.8995474 0 0 0 -0.59375,0.224609 l -9.228516,8.119141 0,-15.958985 a 0.8995474,0.8995474 0 0 0 -0.90039,-0.90039 l -3.613282,0 z m 55.996094,0 a 0.8995474,0.8995474 0 0 0 -0.90039,0.90039 l 0,4.550782 a 0.8995474,0.8995474 0 0 0 0.90039,0.90039 l 3.59375,0 a 0.8995474,0.8995474 0 0 0 0.900391,-0.90039 l 0,-4.550782 a 0.8995474,0.8995474 0 0 0 -0.900391,-0.90039 l -3.59375,0 z m 55.800782,0 a 0.8995474,0.8995474 0 0 0 -0.90039,0.90039 l 0,30.390625 a 0.8995474,0.8995474 0 0 0 0.90039,0.900391 l 3.61328,0 a 0.8995474,0.8995474 0 0 0 0.90039,-0.900391 l 0,-8.570312 9.58985,9.21875 a 0.8995474,0.8995474 0 0 0 0.62304,0.251953 l 4.6875,0 a 0.8995474,0.8995474 0 0 0 0.62305,-1.548828 l -11.38672,-10.962891 10.87109,-9.589843 a 0.8995474,0.8995474 0 0 0 -0.5957,-1.574219 l -4.58984,0 a 0.8995474,0.8995474 0 0 0 -0.59375,0.224609 l -9.22852,8.119141 0,-15.958985 a 0.8995474,0.8995474 0 0 0 -0.90039,-0.90039 l -3.61328,0 z m 47.24609,0 a 0.8995474,0.8995474 0 0 0 -0.90039,0.90039 l 0,30.390625 a 0.8995474,0.8995474 0 0 0 0.90039,0.900391 l 3.59375,0 a 0.8995474,0.8995474 0 0 0 0.90039,-0.900391 l 0,-30.390625 a 0.8995474,0.8995474 0 0 0 -0.90039,-0.90039 l -3.59375,0 z m -64.35547,7.96875 c -2.48818,0 -5.21816,0.650793 -8.20117,1.908203 a 0.8995474,0.8995474 0 0 0 -0.55078,0.828125 l 0,4.003906 a 0.8995474,0.8995474 0 0 0 0.90039,0.900391 l 0.19531,0 a 0.8995474,0.8995474 0 0 0 0.59961,-0.228516 c 0.71613,-0.63901 1.81833,-1.237192 3.31641,-1.732422 1.4126,-0.45787 2.67513,-0.675781 3.7793,-0.675781 2.12814,0 3.69838,0.557552 4.88086,1.638672 1.11451,1.01844 1.66278,2.503498 1.82812,4.392578 l -15.0293,0 a 0.8995474,0.8995474 0 0 0 -0.90039,0.900391 l 0,1.992187 c 0,3.22029 0.80437,5.86284 2.49024,7.78125 a 0.8995474,0.8995474 0 0 0 0.002,0.002 c 1.78755,2.02009 4.40696,3.019531 7.60742,3.019531 3.54597,0 6.49011,-1.238868 8.57227,-3.673828 1.96594,-2.29124 2.93359,-5.296667 2.93359,-8.867187 0,-3.7869 -1.09224,-6.8604 -3.32226,-9.005859 -2.21203,-2.140671 -5.30757,-3.183594 -9.10157,-3.183594 z m 47.38282,0.01953 c -1.23528,0 -2.49955,0.137403 -3.78907,0.408203 -1.29292,0.25859 -2.61884,0.651501 -3.97656,1.175781 a 0.8995474,0.8995474 0 0 0 -0.57617,0.839844 l 0,3.320313 a 0.8995474,0.8995474 0 0 0 1.33203,0.789062 c 1.02912,-0.56357 2.0965,-0.984945 3.20703,-1.265625 1.11204,-0.28107 2.25347,-0.419922 3.43164,-0.419922 1.82716,0 3.11501,0.416147 3.99024,1.154297 a 0.8995474,0.8995474 0 0 0 0.01,0.0078 c 0.75262,0.61823 1.1038,1.468474 1.21289,2.583984 l -4.04101,0 c -3.38289,0 -6.04474,0.636714 -7.92578,2.058594 a 0.8995474,0.8995474 0 0 0 -0.002,0.002 c -1.86696,1.42245 -2.8164,3.62044 -2.8164,6.28125 0,2.29631 0.75448,4.270721 2.25,5.707031 a 0.8995474,0.8995474 0 0 0 0.006,0.0059 c 1.51188,1.42293 3.56183,2.121094 5.96875,2.121094 1.87666,0 3.51996,-0.332209 4.90039,-1.037109 a 0.8995474,0.8995474 0 0 0 0.008,-0.0039 c 0.63764,-0.33239 1.21376,-0.768652 1.75,-1.263672 l 0,0.83789 a 0.8995474,0.8995474 0 0 0 0.90039,0.900391 l 3.59375,0 a 0.8995474,0.8995474 0 0 0 0.90039,-0.900391 l 0,-12.480468 c 0,-3.47387 -0.82145,-6.221112 -2.59375,-8.082032 -1.77161,-1.86019 -4.4207,-2.740234 -7.74023,-2.740234 z M 57.505859,43.949219 a 0.8995474,0.8995474 0 0 0 -0.871093,1.128906 l 5.722656,21.875 A 0.8995474,0.8995474 0 0 0 63.228516,67.625 l 4.238281,0 a 0.8995474,0.8995474 0 0 0 0.869141,-0.671875 l 3.855468,-14.625 3.839844,14.625 A 0.8995474,0.8995474 0 0 0 76.900391,67.625 l 4.238281,0 a 0.8995474,0.8995474 0 0 0 0.871094,-0.671875 l 5.722656,-21.875 a 0.8995474,0.8995474 0 0 0 -0.871094,-1.128906 l -3.59375,0 a 0.8995474,0.8995474 0 0 0 -0.86914,0.671875 L 78.792969,58.380859 75.171875,44.621094 a 0.8995474,0.8995474 0 0 0 -0.869141,-0.671875 l -4.238281,0 a 0.8995474,0.8995474 0 0 0 -0.869141,0.671875 L 65.589844,58.380859 61.96875,44.621094 a 0.8995474,0.8995474 0 0 0 -0.869141,-0.671875 l -3.59375,0 z m 34.824219,0 a 0.8995474,0.8995474 0 0 0 -0.90039,0.90039 l 0,21.875 a 0.8995474,0.8995474 0 0 0 0.90039,0.900391 l 3.59375,0 a 0.8995474,0.8995474 0 0 0 0.900391,-0.900391 l 0,-21.875 a 0.8995474,0.8995474 0 0 0 -0.900391,-0.90039 l -3.59375,0 z m 9.531252,0 a 0.8995474,0.8995474 0 0 0 -0.90039,0.90039 l 0,2.871094 a 0.8995474,0.8995474 0 0 0 0.90039,0.900391 l 11.06836,0 -12.23828,14.236328 a 0.8995474,0.8995474 0 0 0 -0.21875,0.585937 l 0,3.28125 a 0.8995474,0.8995474 0 0 0 0.90039,0.900391 l 17.55859,0 a 0.8995474,0.8995474 0 0 0 0.90039,-0.900391 l 0,-2.871093 a 0.8995474,0.8995474 0 0 0 -0.90039,-0.900391 l -11.55664,0 12.23828,-14.236328 a 0.8995474,0.8995474 0 0 0 0.21875,-0.585938 l 0,-3.28125 a 0.8995474,0.8995474 0 0 0 -0.90039,-0.90039 l -17.07031,0 z m 78.80859,12.679687 2.66016,0 c -0.0186,2.13252 -0.55182,3.748898 -1.58594,4.960938 a 0.8995474,0.8995474 0 0 0 -0.002,0 c -1.03831,1.21888 -2.31905,1.792959 -4.09961,1.792968 -1.28926,0 -2.18459,-0.313628 -2.83985,-0.886718 -0.64133,-0.58463 -0.94726,-1.297077 -0.94726,-2.373047 0,-1.39194 0.39136,-2.12276 1.23828,-2.625 0.82641,-0.49008 2.74109,-0.869141 5.57617,-0.869141 z m -53.33008,2.421875 10.33008,0 c -0.26993,1.14557 -0.72311,2.117533 -1.5293,2.845703 -1.04075,0.94004 -2.31998,1.408204 -4.00585,1.408204 -1.77008,0 -2.93344,-0.441739 -3.69727,-1.236329 -0.61763,-0.6425 -0.95659,-1.688888 -1.09766,-3.017578 z"
    />
    <path
         id="i1"
         
         fill="white" stroke="#003399" transform="translate(-2.6983687,0)"
         d="m 36.333984,35.433594 a 0.8995474,0.8995474 0 0 0 -0.90039,0.90039 l 0,30.390625 a 0.8995474,0.8995474 0 0 0 0.90039,0.900391 l 3.613282,0 a 0.8995474,0.8995474 0 0 0 0.90039,-0.900391 l 0,-8.570312 9.589844,9.21875 A 0.8995474,0.8995474 0 0 0 51.060547,67.625 l 4.6875,0 a 0.8995474,0.8995474 0 0 0 0.623047,-1.548828 L 44.984375,55.113281 55.855469,45.523438 a 0.8995474,0.8995474 0 0 0 -0.595703,-1.574219 l -4.589844,0 a 0.8995474,0.8995474 0 0 0 -0.59375,0.224609 l -9.228516,8.119141 0,-15.958985 a 0.8995474,0.8995474 0 0 0 -0.90039,-0.90039 l -3.613282,0 z m 55.996094,0 a 0.8995474,0.8995474 0 0 0 -0.90039,0.90039 l 0,4.550782 a 0.8995474,0.8995474 0 0 0 0.90039,0.90039 l 3.59375,0 a 0.8995474,0.8995474 0 0 0 0.900391,-0.90039 l 0,-4.550782 a 0.8995474,0.8995474 0 0 0 -0.900391,-0.90039 l -3.59375,0 z m 55.800782,0 a 0.8995474,0.8995474 0 0 0 -0.90039,0.90039 l 0,30.390625 a 0.8995474,0.8995474 0 0 0 0.90039,0.900391 l 3.61328,0 a 0.8995474,0.8995474 0 0 0 0.90039,-0.900391 l 0,-8.570312 9.58985,9.21875 a 0.8995474,0.8995474 0 0 0 0.62304,0.251953 l 4.6875,0 a 0.8995474,0.8995474 0 0 0 0.62305,-1.548828 l -11.38672,-10.962891 10.87109,-9.589843 a 0.8995474,0.8995474 0 0 0 -0.5957,-1.574219 l -4.58984,0 a 0.8995474,0.8995474 0 0 0 -0.59375,0.224609 l -9.22852,8.119141 0,-15.958985 a 0.8995474,0.8995474 0 0 0 -0.90039,-0.90039 l -3.61328,0 z m 47.24609,0 a 0.8995474,0.8995474 0 0 0 -0.90039,0.90039 l 0,30.390625 a 0.8995474,0.8995474 0 0 0 0.90039,0.900391 l 3.59375,0 a 0.8995474,0.8995474 0 0 0 0.90039,-0.900391 l 0,-30.390625 a 0.8995474,0.8995474 0 0 0 -0.90039,-0.90039 l -3.59375,0 z m -64.35547,7.96875 c -2.48818,0 -5.21816,0.650793 -8.20117,1.908203 a 0.8995474,0.8995474 0 0 0 -0.55078,0.828125 l 0,4.003906 a 0.8995474,0.8995474 0 0 0 0.90039,0.900391 l 0.19531,0 a 0.8995474,0.8995474 0 0 0 0.59961,-0.228516 c 0.71613,-0.63901 1.81833,-1.237192 3.31641,-1.732422 1.4126,-0.45787 2.67513,-0.675781 3.7793,-0.675781 2.12814,0 3.69838,0.557552 4.88086,1.638672 1.11451,1.01844 1.66278,2.503498 1.82812,4.392578 l -15.0293,0 a 0.8995474,0.8995474 0 0 0 -0.90039,0.900391 l 0,1.992187 c 0,3.22029 0.80437,5.86284 2.49024,7.78125 a 0.8995474,0.8995474 0 0 0 0.002,0.002 c 1.78755,2.02009 4.40696,3.019531 7.60742,3.019531 3.54597,0 6.49011,-1.238868 8.57227,-3.673828 1.96594,-2.29124 2.93359,-5.296667 2.93359,-8.867187 0,-3.7869 -1.09224,-6.8604 -3.32226,-9.005859 -2.21203,-2.140671 -5.30757,-3.183594 -9.10157,-3.183594 z m 47.38282,0.01953 c -1.23528,0 -2.49955,0.137403 -3.78907,0.408203 -1.29292,0.25859 -2.61884,0.651501 -3.97656,1.175781 a 0.8995474,0.8995474 0 0 0 -0.57617,0.839844 l 0,3.320313 a 0.8995474,0.8995474 0 0 0 1.33203,0.789062 c 1.02912,-0.56357 2.0965,-0.984945 3.20703,-1.265625 1.11204,-0.28107 2.25347,-0.419922 3.43164,-0.419922 1.82716,0 3.11501,0.416147 3.99024,1.154297 a 0.8995474,0.8995474 0 0 0 0.01,0.0078 c 0.75262,0.61823 1.1038,1.468474 1.21289,2.583984 l -4.04101,0 c -3.38289,0 -6.04474,0.636714 -7.92578,2.058594 a 0.8995474,0.8995474 0 0 0 -0.002,0.002 c -1.86696,1.42245 -2.8164,3.62044 -2.8164,6.28125 0,2.29631 0.75448,4.270721 2.25,5.707031 a 0.8995474,0.8995474 0 0 0 0.006,0.0059 c 1.51188,1.42293 3.56183,2.121094 5.96875,2.121094 1.87666,0 3.51996,-0.332209 4.90039,-1.037109 a 0.8995474,0.8995474 0 0 0 0.008,-0.0039 c 0.63764,-0.33239 1.21376,-0.768652 1.75,-1.263672 l 0,0.83789 a 0.8995474,0.8995474 0 0 0 0.90039,0.900391 l 3.59375,0 a 0.8995474,0.8995474 0 0 0 0.90039,-0.900391 l 0,-12.480468 c 0,-3.47387 -0.82145,-6.221112 -2.59375,-8.082032 -1.77161,-1.86019 -4.4207,-2.740234 -7.74023,-2.740234 z M 57.505859,43.949219 a 0.8995474,0.8995474 0 0 0 -0.871093,1.128906 l 5.722656,21.875 A 0.8995474,0.8995474 0 0 0 63.228516,67.625 l 4.238281,0 a 0.8995474,0.8995474 0 0 0 0.869141,-0.671875 l 3.855468,-14.625 3.839844,14.625 A 0.8995474,0.8995474 0 0 0 76.900391,67.625 l 4.238281,0 a 0.8995474,0.8995474 0 0 0 0.871094,-0.671875 l 5.722656,-21.875 a 0.8995474,0.8995474 0 0 0 -0.871094,-1.128906 l -3.59375,0 a 0.8995474,0.8995474 0 0 0 -0.86914,0.671875 L 78.792969,58.380859 75.171875,44.621094 a 0.8995474,0.8995474 0 0 0 -0.869141,-0.671875 l -4.238281,0 a 0.8995474,0.8995474 0 0 0 -0.869141,0.671875 L 65.589844,58.380859 61.96875,44.621094 a 0.8995474,0.8995474 0 0 0 -0.869141,-0.671875 l -3.59375,0 z m 34.824219,0 a 0.8995474,0.8995474 0 0 0 -0.90039,0.90039 l 0,21.875 a 0.8995474,0.8995474 0 0 0 0.90039,0.900391 l 3.59375,0 a 0.8995474,0.8995474 0 0 0 0.900391,-0.900391 l 0,-21.875 a 0.8995474,0.8995474 0 0 0 -0.900391,-0.90039 l -3.59375,0 z m 9.531252,0 a 0.8995474,0.8995474 0 0 0 -0.90039,0.90039 l 0,2.871094 a 0.8995474,0.8995474 0 0 0 0.90039,0.900391 l 11.06836,0 -12.23828,14.236328 a 0.8995474,0.8995474 0 0 0 -0.21875,0.585937 l 0,3.28125 a 0.8995474,0.8995474 0 0 0 0.90039,0.900391 l 17.55859,0 a 0.8995474,0.8995474 0 0 0 0.90039,-0.900391 l 0,-2.871093 a 0.8995474,0.8995474 0 0 0 -0.90039,-0.900391 l -11.55664,0 12.23828,-14.236328 a 0.8995474,0.8995474 0 0 0 0.21875,-0.585938 l 0,-3.28125 a 0.8995474,0.8995474 0 0 0 -0.90039,-0.90039 l -17.07031,0 z m 78.80859,12.679687 2.66016,0 c -0.0186,2.13252 -0.55182,3.748898 -1.58594,4.960938 a 0.8995474,0.8995474 0 0 0 -0.002,0 c -1.03831,1.21888 -2.31905,1.792959 -4.09961,1.792968 -1.28926,0 -2.18459,-0.313628 -2.83985,-0.886718 -0.64133,-0.58463 -0.94726,-1.297077 -0.94726,-2.373047 0,-1.39194 0.39136,-2.12276 1.23828,-2.625 0.82641,-0.49008 2.74109,-0.869141 5.57617,-0.869141 z m -53.33008,2.421875 10.33008,0 c -0.26993,1.14557 -0.72311,2.117533 -1.5293,2.845703 -1.04075,0.94004 -2.31998,1.408204 -4.00585,1.408204 -1.77008,0 -2.93344,-0.441739 -3.69727,-1.236329 -0.61763,-0.6425 -0.95659,-1.688888 -1.09766,-3.017578 z"
          />
    

</svg>
