
<svg
   xmlns:dc="http://purl.org/dc/elements/1.1/"
   xmlns:cc="http://creativecommons.org/ns#"
   xmlns:rdf="http://www.w3.org/1999/02/22-rdf-syntax-ns#"
   xmlns:svg="http://www.w3.org/2000/svg"
   xmlns="http://www.w3.org/2000/svg"
   version="1.1"
   id="svg3497"
    viewBox="30 65 220 20">
  <defs
     id="defs3499" />
  <metadata
     id="metadata3502">
    <rdf:RDF>
      <cc:Work
         rdf:about="">
        <dc:format>image/svg+xml</dc:format>
        <dc:type
           rdf:resource="http://purl.org/dc/dcmitype/StillImage" />
        <dc:title></dc:title>
      </cc:Work>
    </rdf:RDF>
  </metadata>
  <path
            id="i0" fill="none" stroke="#003399"
     d="m 183.4347,76.695312 2.66016,0 c -0.0186,2.13252 -0.55182,3.748898 -1.58594,4.960938 a 0.8995474,0.8995474 0 0 0 -0.002,0 c -1.03831,1.21888 -2.31905,1.792959 -4.09961,1.792968 -1.28926,0 -2.18459,-0.313628 -2.83985,-0.886718 -0.64133,-0.58463 -0.94726,-1.297077 -0.94726,-2.373047 0,-1.39194 0.39136,-2.12276 1.23828,-2.625 0.82641,-0.49008 2.74109,-0.869141 5.57617,-0.869141 z M 104.62611,64.015625 a 0.8995474,0.8995474 0 0 0 -0.90039,0.90039 l 0,2.871094 a 0.8995474,0.8995474 0 0 0 0.90039,0.900391 l 11.06836,0 -12.23828,14.236328 a 0.8995474,0.8995474 0 0 0 -0.21875,0.585937 l 0,3.28125 a 0.8995474,0.8995474 0 0 0 0.90039,0.900391 l 17.55859,0 a 0.8995474,0.8995474 0 0 0 0.90039,-0.900391 l 0,-2.871093 a 0.8995474,0.8995474 0 0 0 -0.90039,-0.900391 l -11.55664,0 12.23828,-14.236328 a 0.8995474,0.8995474 0 0 0 0.21875,-0.585938 l 0,-3.28125 a 0.8995474,0.8995474 0 0 0 -0.90039,-0.90039 l -17.07031,0 z m -9.531257,0 a 0.8995474,0.8995474 0 0 0 -0.90039,0.90039 l 0,21.875 a 0.8995474,0.8995474 0 0 0 0.90039,0.900391 l 3.59375,0 a 0.8995474,0.8995474 0 0 0 0.900391,-0.900391 l 0,-21.875 a 0.8995474,0.8995474 0 0 0 -0.900391,-0.90039 l -3.59375,0 z m -34.824219,0 a 0.8995474,0.8995474 0 0 0 -0.871093,1.128906 l 5.722656,21.875 a 0.8995474,0.8995474 0 0 0 0.871094,0.671875 l 4.238281,0 a 0.8995474,0.8995474 0 0 0 0.869141,-0.671875 l 3.855468,-14.625 3.839844,14.625 a 0.8995474,0.8995474 0 0 0 0.869141,0.671875 l 4.238281,0 a 0.8995474,0.8995474 0 0 0 0.871094,-0.671875 l 5.722656,-21.875 a 0.8995474,0.8995474 0 0 0 -0.871094,-1.128906 l -3.59375,0 A 0.8995474,0.8995474 0 0 0 85.163213,64.6875 L 81.557744,78.447265 77.93665,64.6875 a 0.8995474,0.8995474 0 0 0 -0.869141,-0.671875 l -4.238281,0 A 0.8995474,0.8995474 0 0 0 71.960087,64.6875 L 68.354619,78.447265 64.733525,64.6875 a 0.8995474,0.8995474 0 0 0 -0.869141,-0.671875 l -3.59375,0 z M 181.16908,63.48828 c -1.23528,0 -2.49955,0.137403 -3.78907,0.408203 -1.29292,0.25859 -2.61884,0.651501 -3.97656,1.175781 a 0.8995474,0.8995474 0 0 0 -0.57617,0.839844 l 0,3.320313 a 0.8995474,0.8995474 0 0 0 1.33203,0.789062 c 1.02912,-0.56357 2.0965,-0.984945 3.20703,-1.265625 1.11204,-0.28107 2.25347,-0.419922 3.43164,-0.419922 1.82716,0 3.11501,0.416147 3.99024,1.154297 a 0.8995474,0.8995474 0 0 0 0.01,0.0078 c 0.75262,0.61823 1.1038,1.468474 1.21289,2.583984 l -4.04101,0 c -3.38289,0 -6.04474,0.636714 -7.92578,2.058594 a 0.8995474,0.8995474 0 0 0 -0.002,0.002 c -1.86696,1.42245 -2.8164,3.62044 -2.8164,6.28125 0,2.29631 0.75448,4.270721 2.25,5.707031 a 0.8995474,0.8995474 0 0 0 0.006,0.0059 c 1.51188,1.42293 3.56183,2.121094 5.96875,2.121094 1.87666,0 3.51996,-0.332209 4.90039,-1.037109 a 0.8995474,0.8995474 0 0 0 0.008,-0.0039 c 0.63764,-0.33239 1.21376,-0.768652 1.75,-1.263672 l 0,0.83789 a 0.8995474,0.8995474 0 0 0 0.90039,0.900391 l 3.59375,0 a 0.8995474,0.8995474 0 0 0 0.90039,-0.900391 l 0,-12.480468 c 0,-3.47387 -0.82145,-6.221112 -2.59375,-8.082032 -1.77161,-1.86019 -4.4207,-2.740234 -7.74023,-2.740234 z M 198.14173,55.5 a 0.8995474,0.8995474 0 0 0 -0.90039,0.90039 l 0,30.390625 a 0.8995474,0.8995474 0 0 0 0.90039,0.900391 l 3.59375,0 a 0.8995474,0.8995474 0 0 0 0.90039,-0.900391 l 0,-30.390625 A 0.8995474,0.8995474 0 0 0 201.73548,55.5 l -3.59375,0 z m -47.24609,0 a 0.8995474,0.8995474 0 0 0 -0.90039,0.90039 l 0,30.390625 a 0.8995474,0.8995474 0 0 0 0.90039,0.900391 l 3.61328,0 a 0.8995474,0.8995474 0 0 0 0.90039,-0.900391 l 0,-8.570312 9.58985,9.21875 a 0.8995474,0.8995474 0 0 0 0.62304,0.251953 l 4.6875,0 a 0.8995474,0.8995474 0 0 0 0.62305,-1.548828 l -11.38672,-10.962891 10.87109,-9.589843 a 0.8995474,0.8995474 0 0 0 -0.5957,-1.574219 l -4.58984,0 a 0.8995474,0.8995474 0 0 0 -0.59375,0.224609 l -9.22852,8.119141 0,-15.958985 A 0.8995474,0.8995474 0 0 0 154.50892,55.5 l -3.61328,0 z m -55.800787,0 a 0.8995474,0.8995474 0 0 0 -0.90039,0.90039 l 0,4.550782 a 0.8995474,0.8995474 0 0 0 0.90039,0.90039 l 3.59375,0 a 0.8995474,0.8995474 0 0 0 0.900391,-0.90039 l 0,-4.550782 A 0.8995474,0.8995474 0 0 0 98.688603,55.5 l -3.59375,0 z m -55.996094,0 a 0.8995474,0.8995474 0 0 0 -0.90039,0.90039 l 0,30.390625 a 0.8995474,0.8995474 0 0 0 0.90039,0.900391 l 3.613282,0 a 0.8995474,0.8995474 0 0 0 0.90039,-0.900391 l 0,-8.570312 9.589844,9.21875 a 0.8995474,0.8995474 0 0 0 0.623047,0.251953 l 4.6875,0 a 0.8995474,0.8995474 0 0 0 0.623047,-1.548828 L 47.74915,75.179687 58.620244,65.589844 a 0.8995474,0.8995474 0 0 0 -0.595703,-1.574219 l -4.589844,0 a 0.8995474,0.8995474 0 0 0 -0.59375,0.224609 l -9.228516,8.119141 0,-15.958985 A 0.8995474,0.8995474 0 0 0 42.712041,55.5 l -3.613282,0 z"
      />
  <path
            id="i1" fill="white" stroke="#003399"
     d="m 180.73633,76.695312 2.66016,0 c -0.0186,2.13252 -0.55182,3.748898 -1.58594,4.960938 a 0.8995474,0.8995474 0 0 0 -0.002,0 c -1.03831,1.21888 -2.31905,1.792959 -4.09961,1.792968 -1.28926,0 -2.18459,-0.313628 -2.83985,-0.886718 -0.64133,-0.58463 -0.94726,-1.297077 -0.94726,-2.373047 0,-1.39194 0.39136,-2.12276 1.23828,-2.625 0.82641,-0.49008 2.74109,-0.869141 5.57617,-0.869141 z M 101.92774,64.015625 a 0.8995474,0.8995474 0 0 0 -0.90039,0.90039 l 0,2.871094 a 0.8995474,0.8995474 0 0 0 0.90039,0.900391 l 11.06836,0 -12.23828,14.236328 a 0.8995474,0.8995474 0 0 0 -0.21875,0.585937 l 0,3.28125 a 0.8995474,0.8995474 0 0 0 0.90039,0.900391 l 17.55859,0 a 0.8995474,0.8995474 0 0 0 0.90039,-0.900391 l 0,-2.871093 a 0.8995474,0.8995474 0 0 0 -0.90039,-0.900391 l -11.55664,0 12.23828,-14.236328 a 0.8995474,0.8995474 0 0 0 0.21875,-0.585938 l 0,-3.28125 a 0.8995474,0.8995474 0 0 0 -0.90039,-0.90039 l -17.07031,0 z m -9.531256,0 a 0.8995474,0.8995474 0 0 0 -0.90039,0.90039 l 0,21.875 a 0.8995474,0.8995474 0 0 0 0.90039,0.900391 l 3.59375,0 a 0.8995474,0.8995474 0 0 0 0.900391,-0.900391 l 0,-21.875 a 0.8995474,0.8995474 0 0 0 -0.900391,-0.90039 l -3.59375,0 z m -34.824219,0 a 0.8995474,0.8995474 0 0 0 -0.871093,1.128906 l 5.722656,21.875 a 0.8995474,0.8995474 0 0 0 0.871094,0.671875 l 4.238281,0 a 0.8995474,0.8995474 0 0 0 0.869141,-0.671875 l 3.855468,-14.625 3.839844,14.625 a 0.8995474,0.8995474 0 0 0 0.869141,0.671875 l 4.238281,0 a 0.8995474,0.8995474 0 0 0 0.871094,-0.671875 l 5.722656,-21.875 a 0.8995474,0.8995474 0 0 0 -0.871094,-1.128906 l -3.59375,0 A 0.8995474,0.8995474 0 0 0 82.464844,64.6875 L 78.859375,78.447265 75.238281,64.6875 A 0.8995474,0.8995474 0 0 0 74.36914,64.015625 l -4.238281,0 A 0.8995474,0.8995474 0 0 0 69.261718,64.6875 L 65.65625,78.447265 62.035156,64.6875 a 0.8995474,0.8995474 0 0 0 -0.869141,-0.671875 l -3.59375,0 z M 178.47071,63.48828 c -1.23528,0 -2.49955,0.137403 -3.78907,0.408203 -1.29292,0.25859 -2.61884,0.651501 -3.97656,1.175781 a 0.8995474,0.8995474 0 0 0 -0.57617,0.839844 l 0,3.320313 a 0.8995474,0.8995474 0 0 0 1.33203,0.789062 c 1.02912,-0.56357 2.0965,-0.984945 3.20703,-1.265625 1.11204,-0.28107 2.25347,-0.419922 3.43164,-0.419922 1.82716,0 3.11501,0.416147 3.99024,1.154297 a 0.8995474,0.8995474 0 0 0 0.01,0.0078 c 0.75262,0.61823 1.1038,1.468474 1.21289,2.583984 l -4.04101,0 c -3.38289,0 -6.04474,0.636714 -7.92578,2.058594 a 0.8995474,0.8995474 0 0 0 -0.002,0.002 c -1.86696,1.42245 -2.8164,3.62044 -2.8164,6.28125 0,2.29631 0.75448,4.270721 2.25,5.707031 a 0.8995474,0.8995474 0 0 0 0.006,0.0059 c 1.51188,1.42293 3.56183,2.121094 5.96875,2.121094 1.87666,0 3.51996,-0.332209 4.90039,-1.037109 a 0.8995474,0.8995474 0 0 0 0.008,-0.0039 c 0.63764,-0.33239 1.21376,-0.768652 1.75,-1.263672 l 0,0.83789 a 0.8995474,0.8995474 0 0 0 0.90039,0.900391 l 3.59375,0 a 0.8995474,0.8995474 0 0 0 0.90039,-0.900391 l 0,-12.480468 c 0,-3.47387 -0.82145,-6.221112 -2.59375,-8.082032 -1.77161,-1.86019 -4.4207,-2.740234 -7.74023,-2.740234 z M 195.44336,55.5 a 0.8995474,0.8995474 0 0 0 -0.90039,0.90039 l 0,30.390625 a 0.8995474,0.8995474 0 0 0 0.90039,0.900391 l 3.59375,0 a 0.8995474,0.8995474 0 0 0 0.90039,-0.900391 l 0,-30.390625 A 0.8995474,0.8995474 0 0 0 199.03711,55.5 l -3.59375,0 z m -47.24609,0 a 0.8995474,0.8995474 0 0 0 -0.90039,0.90039 l 0,30.390625 a 0.8995474,0.8995474 0 0 0 0.90039,0.900391 l 3.61328,0 a 0.8995474,0.8995474 0 0 0 0.90039,-0.900391 l 0,-8.570312 9.58985,9.21875 a 0.8995474,0.8995474 0 0 0 0.62304,0.251953 l 4.6875,0 a 0.8995474,0.8995474 0 0 0 0.62305,-1.548828 l -11.38672,-10.962891 10.87109,-9.589843 a 0.8995474,0.8995474 0 0 0 -0.5957,-1.574219 l -4.58984,0 a 0.8995474,0.8995474 0 0 0 -0.59375,0.224609 l -9.22852,8.119141 0,-15.958985 A 0.8995474,0.8995474 0 0 0 151.81055,55.5 l -3.61328,0 z m -55.800786,0 a 0.8995474,0.8995474 0 0 0 -0.90039,0.90039 l 0,4.550782 a 0.8995474,0.8995474 0 0 0 0.90039,0.90039 l 3.59375,0 a 0.8995474,0.8995474 0 0 0 0.900391,-0.90039 l 0,-4.550782 A 0.8995474,0.8995474 0 0 0 95.990234,55.5 l -3.59375,0 z m -55.996094,0 A 0.8995474,0.8995474 0 0 0 35.5,56.40039 l 0,30.390625 a 0.8995474,0.8995474 0 0 0 0.90039,0.900391 l 3.613282,0 a 0.8995474,0.8995474 0 0 0 0.90039,-0.900391 l 0,-8.570312 9.589844,9.21875 a 0.8995474,0.8995474 0 0 0 0.623047,0.251953 l 4.6875,0 A 0.8995474,0.8995474 0 0 0 56.4375,86.142578 L 45.050781,75.179687 55.921875,65.589844 a 0.8995474,0.8995474 0 0 0 -0.595703,-1.574219 l -4.589844,0 a 0.8995474,0.8995474 0 0 0 -0.59375,0.224609 l -9.228516,8.119141 0,-15.958985 A 0.8995474,0.8995474 0 0 0 40.013672,55.5 l -3.613282,0 z"
      />

       
       <path
            id="i2" fill="none" stroke="#003399"
     d="m 130.10462,79.117188 10.33008,0 c -0.26993,1.14557 -0.72311,2.11753 -1.5293,2.8457 -1.04075,0.94004 -2.31998,1.40821 -4.00585,1.40821 -1.77008,0 -2.93344,-0.44174 -3.69727,-1.23633 -0.61763,-0.6425 -0.95659,-1.68889 -1.09766,-3.01758 z m 3.68164,-15.64844 c -2.48818,0 -5.21816,0.6508 -8.20117,1.90821 a 0.8995474,0.8995474 0 0 0 -0.55078,0.82812 l 0,4.00391 a 0.8995474,0.8995474 0 0 0 0.90039,0.90039 l 0.19531,0 a 0.8995474,0.8995474 0 0 0 0.59961,-0.22852 c 0.71613,-0.63901 1.81833,-1.23719 3.31641,-1.73242 1.4126,-0.45787 2.67513,-0.67578 3.7793,-0.67578 2.12814,0 3.69838,0.55755 4.88086,1.63867 1.11451,1.01844 1.66278,2.5035 1.82812,4.39258 l -15.0293,0 a 0.8995474,0.8995474 0 0 0 -0.90039,0.90039 l 0,1.99219 c 0,3.22029 0.80437,5.86284 2.49024,7.78125 a 0.8995474,0.8995474 0 0 0 0.002,0.002 c 1.78755,2.02009 4.40696,3.01953 7.60742,3.01953 3.54597,0 6.49011,-1.23887 8.57227,-3.67383 1.96594,-2.29124 2.93359,-5.29667 2.93359,-8.86719 0,-3.7869 -1.09224,-6.8604 -3.32226,-9.00586 -2.21203,-2.14067 -5.30757,-3.18359 -9.10157,-3.18359 z"
      ><animateTransform attributeType="xml"
                      attributeName="transform"
                      type="rotate"
                    from="0 135.4072608947754 75.8340015411377"
                      to="360 135.4072608947754 75.8340015411377"
                      dur="2s"
                      repeatCount="1"/></path>

    <path
            id="i3" fill="white" stroke="#003399"
     d="m 127.40625,79.117188 10.33008,0 c -0.26993,1.14557 -0.72311,2.11753 -1.5293,2.8457 -1.04075,0.94004 -2.31998,1.40821 -4.00585,1.40821 -1.77008,0 -2.93344,-0.44174 -3.69727,-1.23633 -0.61763,-0.6425 -0.95659,-1.68889 -1.09766,-3.01758 z m 3.68164,-15.64844 c -2.48818,0 -5.21816,0.6508 -8.20117,1.90821 a 0.8995474,0.8995474 0 0 0 -0.55078,0.82812 l 0,4.00391 a 0.8995474,0.8995474 0 0 0 0.90039,0.90039 l 0.19531,0 a 0.8995474,0.8995474 0 0 0 0.59961,-0.22852 c 0.71613,-0.63901 1.81833,-1.23719 3.31641,-1.73242 1.4126,-0.45787 2.67513,-0.67578 3.7793,-0.67578 2.12814,0 3.69838,0.55755 4.88086,1.63867 1.11451,1.01844 1.66278,2.5035 1.82812,4.39258 l -15.0293,0 a 0.8995474,0.8995474 0 0 0 -0.90039,0.90039 l 0,1.99219 c 0,3.22029 0.80437,5.86284 2.49024,7.78125 a 0.8995474,0.8995474 0 0 0 0.002,0.002 c 1.78755,2.02009 4.40696,3.01953 7.60742,3.01953 3.54597,0 6.49011,-1.23887 8.57227,-3.67383 1.96594,-2.29124 2.93359,-5.29667 2.93359,-8.86719 0,-3.7869 -1.09224,-6.8604 -3.32226,-9.00586 -2.21203,-2.14067 -5.30757,-3.18359 -9.10157,-3.18359 z"
      ><animateTransform attributeType="xml"
                      attributeName="transform"
                      type="rotate"
                    from="0 132.7088966369629 75.8340015411377"
                      to="360 132.7088966369629 75.8340015411377"
                      dur="2s"
                      repeatCount="1"/></path>
          <path
            id="i4" fill="yellow" stroke="#003399"
     d="m 227.78841,80.493306 c -2.38562,2.558714 -1.62211,1.93562 -2.3895,2.928627 L 219.773,80.057311 c 0,0 1.23445,-1.763202 1.70077,-2.744057 1.08582,-2.284049 -0.0876,-7.256239 -0.0876,-7.256239 0.0803,-1.791712 0.43238,-3.02137 1.08898,-4.158762 2.25551,-3.906646 7.25092,-5.245179 11.15759,-2.989679 3.90665,2.255512 5.24517,7.250941 2.18477,12.148369 -2.93343,2.777877 -5.73931,3.649083 -8.02908,5.436336 z"
      />
          <path
            id="i5" fill="none" stroke="#003399"
     d="m 222.36997,82.71939 2.07087,1.689612 m -5.95742,-0.804816 1.73602,1.413961 m -1.83786,-2.37843 4.45049,3.55751 0,0 m -3.74956,-4.058511 4.32699,3.486194 m -4.17226,-4.467209 4.48614,3.495752 -0.0356,0.06175 m -4.27927,-4.281969 c 0.56545,0.161158 5.87587,3.227755 5.87587,3.227755 l -0.60151,0.801236 c -0.26576,0.400112 -1.54918,0.212666 -0.79736,1.200282 -0.67965,-0.03022 -1.45778,-0.146956 -0.72605,1.06323 l -0.6081,0.956084 -5.45059,-3.393904 0.47604,-0.795246 c 1.38711,0.362032 0.51905,-0.57832 0.58595,-0.978698 1.39018,0.198106 0.77678,-0.760533 0.80683,-1.347677 z"
      />
       <path
            id="i6" fill="none" stroke="#003399"
     d="m 234.18794,60.396165 2.12769,-5.111319 m -6.87106,3.772412 -0.59191,-6.105137 m 9.51522,10.186662 5.15603,-3.939241 -0.1331,0.08785 m -7.88554,19.077223 4.50712,4.742872 m -1.41565,-7.815738 6.33865,4.565303 0,0 -0.14957,-0.168771 m -4.42489,-9.306125 7.32293,2.004885 m -30.54531,-2.568164 -7.05238,-1.189994 m 8.84709,-2.631547 -7.19174,-3.658147 0,0 m 10.06043,-1.025349 -5.58043,-6.021231 0.0358,-0.06175"
      />
      <path
            id="i7" fill="none" stroke="#003399"
     d="m 224.4939,74.4772 1.54635,0.316379 1.50809,0.953062 0.8002,1.038353 -4.00443,5.509794 -3.02578,-1.746938 z"
      />
      <path
            id="i8" fill="none" stroke="#003399"
     d="m 225.54061,69.812124 c 0,0 1.56543,-0.0013 2.02378,0.345089 0,0 0.23745,0.301751 0.69324,1.223588 0.83884,0.741527 1.83523,0.3997 2.34211,0.364188 l 0.89504,1.587111 m -3.54442,2.835736 c 3.68287,-2.813761 3.54981,-2.725915 3.54981,-2.725915 l 0,0 m -6.59055,1.028278 c 0.59534,-4.596329 0.58577,-4.437168 0.58577,-4.437168 l 0,0"
      />

</svg>
